<?xml version="1.0" standalone="no"?>
<!DOCTYPE svg PUBLIC "-//W3C//DTD SVG 20010904//EN"
 "http://www.w3.org/TR/2001/REC-SVG-20010904/DTD/svg10.dtd">
<svg version="1.0" xmlns="http://www.w3.org/2000/svg"
 width="735.000000pt" height="637.000000pt" viewBox="0 0 735.000000 637.000000"
 preserveAspectRatio="xMidYMid meet">

<g transform="translate(0.000000,637.000000) scale(0.100000,-0.100000)"
fill="#000000" stroke="none">
<path d="M0 3185 l0 -3185 3675 0 3675 0 0 3185 0 3185 -3675 0 -3675 0 0
-3185z m2930 2750 c0 -18 5 -25 19 -25 20 0 31 -18 31 -51 0 -14 7 -19 25 -19
24 0 25 -2 22 -62 l-4 -63 -46 -3 c-39 -3 -47 -6 -47 -23 0 -12 -7 -19 -20
-19 -13 0 -20 -7 -20 -19 0 -11 9 -23 20 -26 15 -5 20 -15 20 -41 l0 -34 -55
0 c-48 0 -55 3 -55 19 0 17 -7 19 -67 19 -63 -1 -68 1 -67 21 0 15 -5 21 -22
21 -16 0 -25 9 -33 30 -5 17 -15 30 -21 30 -6 0 -8 -4 -5 -10 3 -5 1 -10 -4
-10 -6 0 -11 -5 -11 -11 0 -5 5 -7 10 -4 6 3 10 -1 10 -9 0 -9 -6 -16 -14 -16
-8 0 -14 -6 -13 -12 0 -7 -1 -32 -1 -55 l-2 -43 -45 0 c-43 0 -45 1 -45 29 0
26 4 30 40 36 22 4 40 8 40 10 0 15 -14 34 -21 29 -5 -3 -9 13 -9 34 0 68 -11
102 -31 102 -15 0 -19 8 -19 40 0 42 -24 58 -33 23 -4 -14 -5 -12 -6 5 -1 21
3 22 64 22 l65 0 0 -50 c0 -46 2 -50 24 -50 13 0 26 6 29 13 2 8 31 12 98 12
l94 0 3 68 c3 64 4 67 27 67 20 0 25 5 25 25 0 20 5 25 25 25 20 0 25 -5 25
-25z m750 -55 c0 -56 3 -70 15 -70 19 0 21 56 3 63 -8 3 -7 6 4 6 12 1 18 -9
20 -36 l3 -38 73 -3 72 -3 0 41 c0 29 4 40 15 40 8 0 15 -4 15 -10 0 -5 -5
-10 -11 -10 -14 0 -7 -52 9 -58 8 -2 12 9 12 36 0 34 3 41 23 44 17 2 23 11
25 36 3 29 6 32 38 32 l34 0 0 -89 c0 -84 -1 -89 -20 -84 -14 4 -20 0 -20 -10
0 -11 10 -15 36 -15 19 0 37 -2 39 -4 4 -4 7 -97 6 -185 -1 -54 -4 -63 -19
-63 -15 0 -18 -6 -14 -30 4 -30 4 -30 -42 -30 l-46 0 0 -90 c0 -49 -4 -90 -9
-90 -5 0 -7 9 -4 20 3 11 0 20 -6 20 -10 0 -16 -35 -12 -68 2 -9 -6 -11 -23
-6 l-26 6 0 -77 c0 -48 -4 -74 -10 -70 -5 3 -10 2 -10 -4 0 -5 -8 -12 -17 -15
-10 -3 -6 -4 10 -2 18 2 27 -1 27 -10 0 -9 -12 -14 -35 -14 l-35 0 0 50 c0 38
-4 50 -15 50 -10 0 -15 10 -15 30 0 22 -4 28 -15 24 -11 -5 -15 -23 -15 -73 0
-36 -4 -70 -8 -76 -8 -11 -103 -4 -102 8 1 52 0 57 -25 57 -32 0 -34 -27 -2
-33 12 -2 -6 -5 -40 -6 -56 -1 -63 -3 -63 -21 0 -14 -7 -20 -21 -20 -22 0 -52
-24 -42 -34 4 -3 -12 -6 -35 -6 -41 0 -42 1 -42 35 0 31 3 35 25 35 23 0 25 3
25 50 0 46 2 50 24 50 19 0 22 -4 18 -25 -2 -15 0 -25 7 -25 11 0 14 19 13
108 0 44 3 52 19 52 15 0 19 8 20 33 0 17 3 26 6 19 7 -18 23 -4 23 20 0 14 5
18 15 14 9 -3 15 0 15 9 0 8 9 15 20 15 16 0 20 7 20 30 0 20 -5 30 -15 30
-10 0 -15 10 -15 30 0 27 -3 30 -30 30 l-30 0 0 110 c0 108 0 110 23 110 18 0
22 6 23 33 3 123 3 127 24 127 16 0 20 7 20 35 0 33 2 35 35 35 l35 0 0 -70z
m1208 23 c-28 -7 -21 -21 17 -34 32 -12 35 -16 35 -55 0 -34 -4 -43 -21 -47
-16 -4 -20 -12 -17 -44 3 -36 2 -38 -29 -41 -29 -3 -33 -7 -33 -32 0 -27 -15
-40 -46 -40 -8 0 -14 9 -14 20 0 18 -7 20 -70 20 -40 0 -70 4 -70 10 0 6 12
11 28 11 l27 2 -27 4 c-26 4 -27 6 -21 49 5 42 5 44 -19 44 -21 0 -25 -4 -20
-25 4 -23 1 -25 -32 -25 -35 0 -36 1 -36 40 0 29 4 40 15 40 8 0 15 9 15 20 0
19 7 20 110 20 91 0 110 -3 110 -15 0 -8 7 -15 15 -15 11 0 15 12 15 50 l0 50
43 -1 c23 -1 34 -3 25 -6z m-2878 -178 c0 -38 3 -45 20 -45 15 0 20 -7 20 -25
0 -21 5 -25 30 -25 23 0 30 -4 30 -20 0 -16 -7 -20 -30 -20 -23 0 -30 -4 -30
-20 0 -13 -7 -20 -20 -20 -17 0 -20 -7 -20 -40 0 -36 -2 -40 -25 -40 -22 0
-25 4 -25 40 0 33 -3 40 -20 40 -13 0 -20 7 -20 20 0 16 -7 20 -30 20 -23 0
-30 5 -30 19 0 14 8 21 28 23 19 2 28 9 30 26 2 15 9 22 20 20 14 -2 18 7 20
45 3 42 5 47 28 47 22 0 24 -4 24 -45z m2607 -40 c-4 -8 -12 -15 -19 -14 -10
0 -10 2 0 6 6 2 12 12 12 21 0 8 3 13 6 9 4 -3 4 -13 1 -22z m-1647 0 c0 -8
-7 -15 -15 -15 -13 0 -14 3 -3 15 16 18 18 18 18 0z m2540 -35 c0 -23 4 -30
20 -30 16 0 20 -7 20 -30 0 -23 -4 -30 -20 -30 -18 0 -20 -7 -20 -71 0 -61 -2
-70 -16 -65 -9 3 -26 6 -39 6 -21 0 -24 6 -31 57 -6 48 -8 54 -15 34 -5 -12
-7 -27 -3 -32 3 -5 0 -9 -5 -9 -7 0 -11 27 -11 70 0 63 2 70 20 70 16 0 20 7
20 30 0 28 2 30 40 30 38 0 40 -2 40 -30z m-2583 -12 c-3 -8 -6 -5 -6 6 -1 11
2 17 5 13 3 -3 4 -12 1 -19z m1683 -3 c0 -21 -5 -25 -30 -25 -16 0 -30 4 -30
9 0 5 -3 16 -6 25 -5 13 1 16 30 16 32 0 36 -3 36 -25z m-487 -12 c-7 -2 -19
-2 -25 0 -7 3 -2 5 12 5 14 0 19 -2 13 -5z m-1516 -25 c-3 -8 -6 -5 -6 6 -1
11 2 17 5 13 3 -3 4 -12 1 -19z m888 2 c-3 -5 -10 -10 -16 -10 -5 0 -9 5 -9
10 0 6 7 10 16 10 8 0 12 -4 9 -10z m1303 -7 c-10 -2 -26 -2 -35 0 -10 3 -2 5
17 5 19 0 27 -2 18 -5z m1104 -55 c3 -20 10 -23 56 -26 37 -2 52 -7 52 -18 0
-7 5 -14 10 -14 6 0 10 7 10 15 0 8 9 15 20 15 15 0 20 7 20 25 0 25 13 31 44
19 12 -5 16 -21 16 -75 0 -55 3 -69 15 -69 11 0 15 -13 15 -54 0 -52 -1 -55
-29 -61 -22 -5 -30 -13 -35 -36 -10 -53 -28 -62 -117 -60 l-79 2 0 -35 c0 -32
3 -36 25 -36 17 0 25 -5 24 -17 -1 -31 -13 -48 -36 -49 -18 -1 -23 4 -23 22 0
21 -5 24 -32 23 -28 0 -30 -2 -13 -9 19 -8 19 -9 -2 -9 -14 -1 -23 5 -23 14 0
8 -7 15 -15 15 -8 0 -15 9 -15 20 0 11 -4 20 -9 20 -5 0 -7 -9 -4 -21 5 -17 2
-20 -13 -17 -11 2 -18 11 -18 21 1 9 -4 17 -12 17 -8 0 -14 6 -14 13 0 9 -16
13 -55 13 -42 -1 -55 2 -55 14 0 22 -148 27 -156 5 -8 -19 -34 -20 -34 0 0 8
-5 15 -11 15 -6 0 -9 -7 -5 -15 3 -8 2 -15 -3 -15 -5 0 -11 16 -13 35 -4 31
-1 35 20 35 14 0 21 4 17 11 -4 6 2 13 14 16 17 4 21 13 21 44 0 32 3 39 20
39 13 0 20 7 20 20 0 11 5 20 10 20 6 0 10 16 10 35 0 24 5 35 15 35 9 0 15
-9 15 -21 0 -17 5 -20 23 -16 89 20 87 20 87 3 0 -11 9 -16 31 -16 17 0 28 -4
24 -10 -4 -6 8 -10 29 -10 29 0 36 4 36 20 0 11 5 20 10 20 6 0 10 16 10 35 0
24 5 35 15 35 8 0 15 9 15 20 0 16 7 20 34 20 28 0 35 -4 38 -22z m-3052 -7
c0 -5 8 -12 18 -14 9 -3 2 -5 -15 -6 -23 -1 -33 4 -33 14 0 8 7 15 15 15 8 0
15 -4 15 -9z m500 -91 c0 -13 5 -18 15 -14 11 5 15 -1 15 -20 0 -19 5 -26 20
-26 16 0 20 -7 20 -30 0 -23 -4 -30 -20 -30 -17 0 -20 -7 -20 -40 0 -29 4 -40
15 -40 10 0 15 -11 15 -35 l0 -35 -50 0 -50 0 0 41 c0 22 -4 38 -9 35 -5 -4
-16 -3 -25 0 -13 5 -16 22 -16 85 0 78 0 79 25 79 20 0 25 5 25 25 0 18 5 25
20 25 13 0 20 -7 20 -20z m-1990 -60 c0 -27 -3 -30 -32 -30 -18 0 -40 -5 -48
-10 -13 -9 -13 -11 0 -20 10 -6 11 -10 3 -10 -7 0 -13 -11 -13 -25 0 -18 -7
-26 -25 -31 -23 -6 -25 -11 -25 -61 0 -50 2 -55 20 -50 17 4 20 0 20 -24 0
-24 4 -29 24 -29 15 0 26 -7 29 -20 5 -18 14 -20 76 -20 64 0 71 2 71 20 0 15
7 20 25 20 22 0 25 -4 24 -37 -2 -29 -3 -32 -6 -11 -2 14 -11 29 -19 32 -11 4
-14 -5 -14 -44 0 -50 -15 -69 -22 -27 -3 14 -7 6 -12 -25 l-8 -48 -114 0
c-107 0 -114 1 -114 20 0 15 -7 20 -25 20 -20 0 -25 5 -25 25 0 18 -5 25 -20
25 -14 0 -20 7 -20 21 0 18 -4 20 -25 15 l-25 -6 0 90 c0 73 3 90 15 90 8 0
15 5 15 11 0 6 -7 9 -15 5 -9 -3 -15 0 -15 9 0 8 7 15 15 15 8 0 15 9 15 20 0
15 7 20 25 20 20 0 25 5 26 28 2 23 2 24 6 5 2 -13 10 -23 18 -23 8 0 11 7 8
20 -4 15 0 20 16 20 14 0 21 6 21 18 0 29 8 32 82 32 l68 0 0 -30z m2730 -72
c0 -27 -3 -48 -7 -48 -5 0 -18 -3 -30 -6 -14 -4 -23 -2 -23 5 0 7 5 9 10 6 6
-3 10 4 9 17 0 13 -3 17 -6 10 -3 -8 -9 -10 -16 -3 -7 5 -23 11 -37 14 -25 4
-25 4 2 6 33 1 28 30 -6 32 -35 2 34 17 71 15 32 -1 33 -2 33 -48z m835 32
c-3 -5 -1 -10 4 -10 6 0 11 5 11 11 0 7 7 8 18 4 9 -4 26 -8 37 -10 14 -1 21
-10 23 -28 2 -15 10 -27 18 -27 11 0 14 -19 13 -97 -1 -54 -4 -88 -6 -75 -3
16 -9 22 -20 18 -8 -3 -17 -6 -20 -6 -3 0 0 -7 7 -15 11 -13 8 -15 -19 -15
-26 0 -31 -4 -31 -25 0 -15 6 -25 14 -25 15 0 26 -21 26 -51 0 -15 7 -19 39
-19 36 0 40 -3 46 -31 5 -20 11 -29 21 -25 11 4 14 -5 14 -39 l0 -45 -55 0
-55 0 0 36 0 37 -37 -7 c-21 -3 -66 -6 -100 -6 -53 0 -61 -2 -56 -16 4 -10 1
-15 -8 -14 -39 6 -70 -1 -63 -12 5 -9 2 -9 -9 1 -15 12 -17 11 -17 -3 0 -9 7
-16 15 -16 11 0 15 -11 15 -36 0 -31 -3 -36 -20 -31 -17 4 -20 0 -20 -34 0
-37 -2 -39 -30 -39 -22 0 -30 5 -29 18 0 10 3 12 6 5 8 -21 23 -15 23 8 0 15
-5 19 -15 15 -8 -3 -15 -1 -15 4 0 6 7 10 16 10 14 0 16 10 10 73 -3 39 -6 76
-6 80 0 4 -11 -4 -25 -18 -20 -19 -36 -25 -68 -25 -37 0 -42 -3 -43 -24 -1
-18 4 -26 20 -28 25 -4 24 -23 -2 -23 -11 0 -17 -7 -16 -22 1 -21 -3 -23 -40
-22 -35 1 -37 2 -16 9 24 8 24 8 3 9 -29 1 -31 37 -3 44 15 4 20 14 20 41 0
28 4 36 18 36 14 0 19 7 18 25 -2 32 -8 37 -53 38 -31 2 -39 6 -41 25 -2 12
-10 22 -18 22 -8 0 -14 7 -14 16 0 8 -5 12 -10 9 -6 -4 -8 -11 -5 -16 4 -5 1
-9 -4 -9 -7 0 -11 26 -11 65 l0 65 40 0 c38 0 40 2 40 30 0 18 -5 30 -13 30
-9 0 -14 12 -15 30 0 20 4 30 14 30 8 0 14 6 14 14 0 8 10 16 23 18 14 2 22
10 22 23 0 15 8 21 32 23 27 3 33 0 31 -15 -2 -33 4 -88 9 -75 2 6 16 12 29
12 14 0 27 7 30 15 4 8 15 15 25 15 15 0 19 -7 19 -35 0 -28 4 -35 20 -35 17
0 19 -8 22 -67 l3 -68 48 -3 c30 -2 47 1 47 8 0 6 5 8 10 5 6 -3 10 3 10 15 0
20 5 21 58 19 l57 -3 3 72 3 72 -41 0 c-30 0 -40 4 -40 16 0 8 4 13 9 10 5 -4
12 12 16 34 4 22 11 40 16 40 6 0 7 -4 4 -10z m-2244 -40 c1 -5 3 -14 4 -20 1
-5 3 -14 4 -20 0 -5 14 -10 29 -10 48 0 66 -21 66 -79 0 -35 4 -51 13 -51 7 0
13 7 13 15 0 8 7 15 15 15 23 0 18 18 -7 23 -20 4 -19 4 5 6 l27 1 0 -70 c0
-63 -2 -70 -20 -70 -15 0 -20 -7 -20 -25 0 -16 -6 -25 -15 -25 -8 0 -15 -6
-15 -12 0 -10 -2 -10 -8 -1 -4 7 -22 12 -40 10 -28 -2 -32 -6 -32 -30 0 -20 4
-26 13 -21 7 5 6 0 -3 -11 -9 -11 -10 -16 -2 -11 7 4 12 1 12 -9 0 -9 5 -13
10 -10 6 3 10 1 10 -4 0 -6 9 -11 20 -11 12 0 20 -7 20 -17 0 -15 -2 -16 -10
-3 -8 12 -10 10 -10 -8 0 -13 4 -20 10 -17 6 3 10 1 10 -4 0 -6 -16 -11 -35
-11 -28 0 -35 4 -35 20 0 12 -7 20 -16 20 -10 0 -14 6 -10 15 3 9 0 15 -8 15
-8 0 -17 6 -19 13 -3 6 -6 -16 -6 -51 -1 -60 -2 -62 -21 -50 -17 11 -22 10
-30 -2 -7 -11 -10 2 -10 43 l0 57 -65 0 c-47 0 -64 4 -62 13 1 6 -5 10 -13 8
-8 -2 -30 -6 -47 -9 -21 -2 -33 -10 -33 -19 0 -12 -9 -14 -40 -11 -36 3 -40 1
-40 -19 0 -19 -5 -23 -30 -23 -29 0 -30 1 -30 50 0 43 3 50 20 50 19 0 20 7
20 130 l0 130 35 0 c31 0 35 -3 35 -26 0 -26 1 -26 49 -20 59 8 81 0 81 -26 0
-17 5 -20 29 -15 18 4 31 2 33 -5 5 -14 88 -12 102 2 22 22 15 40 -15 40 -29
0 -29 0 -29 61 0 79 11 99 55 99 19 0 36 -4 36 -10z m2166 3 c-9 -2 -15 -9
-12 -14 4 -5 1 -9 -4 -9 -6 0 -11 7 -11 15 0 9 9 15 23 14 17 -1 18 -2 4 -6z
m-2997 -78 c0 -8 -2 -15 -4 -15 -2 0 -6 7 -10 15 -3 8 -1 15 4 15 6 0 10 -7
10 -15z m-1190 -15 c0 -13 -7 -20 -19 -20 -10 0 -21 9 -24 20 -4 16 0 20 19
20 17 0 24 -6 24 -20z m1210 -25 c0 -8 -4 -15 -10 -15 -5 0 -10 -9 -10 -20 0
-13 -5 -18 -15 -14 -8 4 -12 10 -9 15 3 5 0 9 -5 9 -6 0 -11 9 -11 20 0 16 7
20 30 20 20 0 30 -5 30 -15z m3730 -35 c0 -36 -2 -40 -25 -40 -22 0 -25 4 -25
34 0 28 4 35 23 39 12 2 23 5 25 6 1 0 2 -17 2 -39z m425 0 c13 0 27 -4 30
-10 4 -6 -8 -10 -29 -10 -34 0 -36 2 -35 33 1 23 3 26 6 10 3 -16 11 -23 28
-23z m-3401 -25 c4 -10 -1 -15 -14 -15 -11 0 -20 7 -20 15 0 8 6 15 14 15 8 0
16 -7 20 -15z m4022 -65 c10 0 14 -12 14 -40 0 -22 -4 -40 -10 -40 -5 0 -7 7
-4 15 4 8 1 15 -5 15 -6 0 -11 -16 -11 -35 0 -28 -4 -35 -20 -35 -16 0 -20 7
-20 30 0 27 -4 30 -40 36 -33 5 -40 11 -40 29 0 18 7 24 35 29 30 6 35 11 35
36 0 22 5 29 23 32 19 3 22 -2 25 -34 2 -25 8 -38 18 -38z m66 -25 c4 -20 1
-25 -16 -25 -16 0 -22 7 -24 25 -1 19 3 25 17 25 12 0 20 -9 23 -25z m-6022
-170 c0 -31 3 -35 25 -35 18 0 25 -5 25 -20 0 -15 -7 -20 -25 -20 -22 0 -25
-4 -25 -35 0 -31 -3 -35 -25 -35 -22 0 -25 4 -25 35 0 31 -3 35 -25 35 -33 0
-35 37 -2 42 17 2 23 11 25 36 3 26 7 32 28 32 21 0 24 -5 24 -35z m1737 -17
c-3 -7 -5 -2 -5 12 0 14 2 19 5 13 2 -7 2 -19 0 -25z m2180 -14 c-3 -3 -12 -4
-19 -1 -8 3 -5 6 6 6 11 1 17 -2 13 -5z m-537 -54 c0 -47 2 -50 25 -50 23 0
25 -4 25 -41 0 -39 -2 -41 -25 -37 -24 5 -25 3 -25 -38 l0 -44 -37 1 c-21 0
-32 3 -25 6 19 7 14 30 -8 36 -12 3 -20 14 -20 26 0 14 -5 19 -15 15 -11 -5
-15 1 -15 20 0 14 5 26 11 26 5 0 7 -4 4 -10 -3 -5 -1 -10 4 -10 6 0 11 14 11
30 0 23 4 30 20 30 17 0 20 7 20 45 0 41 2 45 25 45 23 0 25 -3 25 -50z
m-1640 30 c0 -5 -12 -10 -27 -9 l-28 1 25 8 c14 4 26 8 28 9 1 1 2 -3 2 -9z
m3160 -9 c0 -12 8 -21 23 -24 l22 -4 -22 -8 c-13 -4 -23 -14 -23 -21 0 -8 -7
-14 -15 -14 -8 0 -15 -7 -15 -15 0 -10 11 -15 35 -15 32 0 35 -2 35 -30 0 -21
-5 -30 -16 -30 -9 0 -23 -8 -30 -17 -8 -11 -13 -13 -14 -5 0 20 -37 14 -43 -8
-4 -16 -14 -20 -46 -20 -35 0 -41 -3 -41 -21 0 -15 -4 -19 -16 -15 -9 3 -20 6
-25 6 -5 0 -9 7 -9 15 0 9 9 15 25 15 27 0 28 3 19 38 -7 25 -44 31 -44 7 0
-8 -7 -15 -15 -15 -8 0 -15 7 -15 15 0 8 7 15 15 15 11 0 15 11 15 40 0 38 2
40 30 40 18 0 33 6 36 15 4 9 19 15 40 15 31 0 34 3 34 30 0 27 3 30 30 30 23
0 30 -5 30 -19z m-2307 2 c-7 -2 -13 -11 -13 -19 0 -10 13 -14 45 -14 25 0 45
-4 45 -9 0 -4 -11 -6 -25 -3 -18 3 -25 0 -25 -10 0 -11 7 -14 25 -10 20 3 25
0 25 -16 0 -11 4 -22 10 -24 5 -1 13 -24 16 -50 6 -41 4 -48 -10 -48 -10 0
-14 -4 -11 -10 3 -5 -1 -10 -9 -10 -9 0 -16 -9 -16 -20 0 -14 7 -20 21 -20 11
0 17 5 14 10 -4 6 5 10 19 10 24 0 26 3 25 43 -1 36 -2 38 -9 17 l-8 -25 -1
28 c-1 15 4 27 10 27 5 0 8 4 4 9 -3 5 -1 12 5 16 6 4 10 -16 10 -53 0 -53 2
-60 23 -66 39 -10 50 -7 44 14 -4 15 0 20 14 20 14 0 19 7 19 30 0 27 3 30 30
30 27 0 30 -3 30 -30 0 -16 -4 -30 -10 -30 -5 0 -10 6 -10 13 0 21 -20 -16
-20 -39 0 -17 -7 -21 -47 -23 -26 -1 -51 -8 -55 -14 -8 -12 -12 -14 -53 -16
-18 -1 -25 -7 -25 -21 0 -16 -7 -20 -37 -20 -47 0 -172 -22 -155 -27 29 -10 8
-20 -38 -19 -27 0 -50 -2 -50 -6 0 -15 -151 -9 -166 6 -28 29 -15 36 65 36 44
0 83 5 86 10 3 6 17 10 31 10 15 0 24 6 24 15 0 8 8 16 18 16 9 1 27 3 40 4
14 1 22 -3 22 -14 0 -14 2 -14 10 -1 6 10 10 11 10 3 0 -7 8 -13 18 -13 14 0
15 2 2 10 -13 8 -13 10 2 10 9 0 19 -6 21 -12 3 -7 6 1 6 17 l1 30 -67 -3
c-38 -1 -77 -7 -88 -11 -56 -25 -61 -22 -56 32 2 13 -5 17 -33 17 -34 0 -36 2
-36 35 0 28 4 35 20 35 13 0 20 7 20 20 0 14 5 18 17 13 11 -4 14 -3 9 5 -4 7
-3 12 3 12 5 0 8 11 6 25 -1 16 3 25 11 25 8 0 14 -7 14 -15 0 -8 5 -15 11
-15 5 0 9 8 8 18 -4 43 2 62 19 61 10 0 12 -3 5 -6 -18 -7 -16 -33 3 -33 8 0
23 7 31 16 14 13 14 17 2 25 -9 6 9 8 51 8 36 0 59 -3 53 -6z m24 -15 c-3 -8
-6 -5 -6 6 -1 11 2 17 5 13 3 -3 4 -12 1 -19z m-1407 -33 c0 -43 1 -45 30 -45
l30 0 0 -85 c0 -69 -3 -85 -15 -85 -8 0 -15 -9 -15 -20 0 -11 7 -20 15 -20 8
0 15 7 15 15 0 10 11 15 35 15 32 0 35 -3 35 -29 0 -25 -5 -30 -35 -35 -21 -4
-35 -13 -35 -21 0 -22 -38 -18 -50 5 -6 11 -15 20 -21 20 -6 0 -3 -7 5 -16 18
-17 23 -99 6 -89 -5 3 -10 1 -10 -4 0 -6 5 -11 10 -11 6 0 10 -8 8 -17 -3 -17
1 -19 42 -22 16 -1 20 -8 20 -36 0 -29 -4 -35 -22 -36 -13 0 -42 -1 -65 -3
-30 -2 -43 2 -43 11 0 7 -11 13 -25 13 -20 0 -25 -5 -25 -25 0 -14 -10 -35
-21 -46 -17 -17 -19 -23 -8 -30 10 -6 11 -9 2 -9 -7 0 -13 -11 -13 -24 0 -19
-6 -25 -30 -28 l-30 -5 -1 66 c0 36 -1 100 -2 141 l-2 75 -37 -3 c-23 -2 -38
1 -38 7 0 6 -9 11 -19 11 -21 0 -33 22 -25 45 7 17 44 21 44 5 0 -5 18 -10 40
-10 28 0 40 4 40 14 0 8 -4 18 -10 21 -5 3 -10 17 -10 31 0 19 -5 24 -25 24
-23 0 -25 3 -25 48 0 27 3 83 6 125 7 76 7 77 35 77 22 0 29 -5 29 -20 0 -15
7 -20 25 -20 14 0 25 -4 25 -10 0 -5 11 -10 25 -10 16 0 25 6 25 15 0 10 10
15 30 15 27 0 30 3 30 30 0 25 4 30 25 30 23 0 25 -4 25 -45z m4400 20 c0 -9
9 -15 25 -15 14 0 25 -4 25 -10 0 -5 7 -10 15 -10 10 0 15 -7 13 -17 -2 -12 4
-18 17 -18 15 0 21 -8 23 -32 2 -21 9 -33 18 -33 9 0 14 -11 14 -35 0 -28 -4
-35 -20 -35 -13 0 -20 -7 -20 -20 0 -22 26 -28 33 -7 2 7 3 6 3 -3 -2 -21 -46
-26 -46 -6 0 9 -7 16 -15 16 -8 0 -15 -7 -15 -15 0 -8 -9 -15 -20 -15 -22 0
-27 -15 -7 -23 6 -3 0 -6 -15 -6 -25 -1 -28 -5 -28 -36 0 -34 -1 -35 -40 -33
-21 1 -37 5 -34 10 3 5 20 6 37 3 24 -5 28 -4 17 4 -24 17 -100 14 -100 -4 0
-22 -40 -19 -41 3 0 13 -2 12 -9 -5 -7 -17 -18 -23 -40 -23 -18 0 -29 4 -25
10 4 6 -7 10 -25 10 -26 0 -33 5 -41 30 -6 17 -15 30 -20 30 -5 0 -9 54 -9
120 0 113 1 120 20 120 16 0 20 -7 20 -35 0 -35 0 -35 45 -35 38 0 45 -3 45
-20 0 -11 7 -20 15 -20 8 0 15 -9 15 -20 0 -15 7 -20 25 -20 24 0 25 2 25 65
l0 65 35 0 c34 0 35 1 35 40 0 36 3 40 25 40 16 0 25 -6 25 -15z m-2290 -11
c0 -17 -22 -14 -28 4 -2 7 3 12 12 12 9 0 16 -7 16 -16z m2870 -19 c0 -8 -9
-15 -20 -15 -11 0 -20 7 -20 15 0 8 9 15 20 15 11 0 20 -7 20 -15z m-5752
-146 c2 -17 11 -29 23 -32 15 -4 19 -15 20 -49 1 -23 1 -49 0 -55 -1 -7 7 -13
19 -13 18 0 20 -6 20 -66 l0 -65 -37 3 c-31 2 -39 7 -41 26 -3 18 -10 22 -38
22 -27 0 -34 -4 -34 -20 0 -15 7 -20 28 -20 19 0 23 -3 13 -9 -8 -5 -11 -16
-6 -30 5 -15 2 -21 -9 -21 -12 0 -16 -10 -16 -39 0 -30 4 -40 20 -44 12 -3 20
-14 20 -26 0 -19 -6 -21 -55 -21 l-55 0 0 -65 c0 -60 2 -65 23 -66 16 -1 18
-2 5 -6 -10 -2 -18 -8 -18 -12 0 -4 -16 -5 -35 -3 -35 4 -42 19 -36 70 1 9
-21 12 -84 12 l-85 0 -1 -72 c-1 -40 -4 -63 -6 -50 -3 15 -11 22 -29 22 -21 0
-24 4 -24 40 0 29 -4 40 -15 40 -8 0 -15 7 -15 15 0 8 -5 15 -11 15 -8 0 -10
-12 -6 -35 5 -32 4 -35 -19 -35 -18 0 -24 -5 -24 -21 0 -11 -4 -17 -10 -14 -5
3 -10 1 -10 -4 0 -6 -9 -11 -20 -11 -17 0 -20 7 -20 50 0 43 3 50 20 50 16 0
20 7 20 30 0 17 4 30 9 30 4 0 7 -11 5 -26 -2 -20 0 -23 11 -14 7 6 12 25 11
43 -2 18 -4 40 -5 50 0 9 -8 17 -16 17 -8 0 -15 9 -15 20 0 15 -7 20 -25 20
-36 0 -36 50 0 67 20 9 25 8 25 -3 0 -8 9 -14 20 -14 13 0 20 -6 19 -17 0 -11
-3 -13 -6 -5 -7 17 -33 15 -33 -3 0 -11 11 -15 40 -15 33 0 40 3 40 20 0 18 7
20 65 20 55 0 65 3 66 18 1 16 2 16 6 0 5 -21 23 -24 23 -4 0 8 10 16 22 18
30 4 37 38 9 38 -17 0 -21 6 -20 28 2 23 2 24 6 4 4 -19 6 -20 19 -8 20 20 17
46 -5 46 -14 0 -20 10 -25 38 -10 61 -8 72 14 72 17 0 20 7 20 40 0 39 1 40
35 40 31 0 35 -3 35 -25 0 -23 4 -25 45 -25 25 0 45 5 45 10 0 6 7 10 15 10 9
0 15 10 15 26 0 22 4 25 28 22 21 -2 28 -9 30 -29z m4008 -19 c0 -11 -4 -20
-8 -20 -4 0 -9 -17 -9 -37 -1 -21 -3 -30 -6 -20 -3 10 -14 17 -26 17 -22 -1
-22 -1 -3 -15 19 -14 19 -15 -7 -15 -22 0 -27 -5 -27 -25 0 -18 -4 -23 -15
-19 -8 4 -15 1 -15 -5 0 -6 -9 -11 -20 -11 -15 0 -20 -7 -20 -25 0 -14 5 -25
11 -25 5 0 8 3 6 8 -3 4 1 13 8 19 11 11 14 5 17 -30 2 -27 7 -41 16 -39 6 1
12 -2 12 -8 0 -5 -4 -10 -10 -10 -5 0 -10 -4 -10 -10 0 -5 5 -9 12 -7 6 1 12
-11 13 -27 1 -16 9 -35 19 -41 18 -14 22 -30 4 -19 -7 4 -8 3 -4 -4 4 -7 18
-12 32 -12 23 0 24 -3 24 -55 0 -52 -1 -55 -26 -55 -14 0 -23 -4 -19 -10 4 -6
11 -8 16 -5 5 4 9 1 9 -4 0 -6 -8 -11 -19 -11 -14 0 -21 10 -26 38 -4 20 -10
31 -12 25 -3 -7 -19 -13 -36 -14 -27 0 -29 -2 -12 -9 16 -7 13 -9 -17 -9 -27
-1 -38 -5 -38 -16 0 -11 -11 -15 -40 -15 -29 0 -40 -4 -40 -15 0 -9 -8 -14
-22 -12 -15 1 -22 -3 -20 -12 5 -25 -9 -51 -29 -51 -11 0 -19 -7 -19 -17 0
-15 -2 -16 -10 -3 -7 11 -10 4 -10 -27 0 -42 -1 -43 -35 -43 -33 0 -35 2 -35
33 0 24 3 28 10 17 6 -10 10 -11 10 -2 0 6 7 12 15 12 11 0 15 11 15 40 0 33
3 40 20 40 11 0 20 6 21 13 0 10 2 10 6 0 8 -22 23 -14 23 11 0 19 4 23 20 19
15 -4 20 0 20 16 0 15 -6 21 -22 20 -22 0 -22 -1 -3 -9 16 -7 12 -9 -18 -9
-23 -1 -36 -5 -32 -11 3 -5 -3 -10 -14 -10 -12 0 -21 -6 -21 -14 0 -16 -93
-32 -98 -16 -8 23 -22 7 -22 -25 0 -31 -3 -35 -25 -35 -18 0 -25 -5 -25 -20 0
-17 -6 -20 -37 -19 -31 2 -33 3 -10 6 31 5 37 23 8 23 -11 0 -23 5 -26 11 -8
11 25 40 37 33 5 -3 8 -1 8 5 0 5 -6 12 -12 14 -7 3 -3 6 9 6 17 1 21 6 20 28
-2 18 -9 29 -21 31 -22 5 -37 18 -54 47 -6 11 -12 14 -12 8 0 -28 -20 -11 -20
17 0 30 14 41 23 18 3 -7 6 22 6 66 1 69 3 77 16 66 8 -7 15 -11 16 -9 0 2 3
18 5 34 3 17 7 36 9 43 7 18 25 15 26 -5 0 -10 5 -3 10 15 17 57 35 32 32 -45
-1 -9 16 -13 53 -13 30 0 54 5 54 10 0 6 9 10 19 10 13 0 21 8 23 22 3 26 36
37 49 16 7 -11 9 -11 9 1 0 11 3 11 15 1 17 -14 21 -105 5 -115 -19 -12 -10
-35 16 -41 36 -9 55 12 23 25 -23 9 -23 10 9 10 29 1 32 4 32 31 0 20 5 30 15
30 8 0 15 -7 15 -15 0 -8 9 -15 20 -15 25 0 27 20 3 21 -17 1 -17 2 0 6 9 2
17 11 17 18 0 7 8 16 18 18 9 3 0 5 -20 6 -36 1 -44 10 -39 44 0 4 -6 7 -14 7
-8 0 -15 9 -15 21 0 11 5 17 10 14 6 -3 10 -1 10 4 0 6 6 11 13 11 8 0 14 7
14 15 0 18 -13 20 -20 3 -3 -8 -6 -6 -6 5 -1 12 7 17 24 17 20 0 25 5 25 25 0
18 5 25 20 25 11 0 20 6 20 14 0 16 23 22 80 25 30 1 36 -3 36 -19z m-2210 -3
c9 3 14 -2 14 -16 0 -12 -4 -21 -10 -21 -5 0 -10 -15 -10 -34 0 -39 -11 -50
-40 -41 -29 9 -29 75 0 75 15 0 20 7 21 28 0 15 3 22 5 15 3 -7 12 -9 20 -6z
m121 -49 c-3 -8 -6 -5 -6 6 -1 11 2 17 5 13 3 -3 4 -12 1 -19z m-503 -58 c7 0
13 -15 14 -35 l3 -35 -51 0 c-55 0 -80 -15 -80 -48 0 -11 -7 -22 -15 -26 -8
-3 -15 -17 -15 -31 0 -39 -39 -34 -47 6 -4 20 -10 28 -19 25 -10 -4 -14 3 -14
24 0 20 5 30 15 30 8 0 15 5 15 11 0 5 -4 7 -10 4 -5 -3 -10 -1 -10 4 0 6 7
11 15 11 10 0 15 10 15 30 0 17 3 29 8 28 4 -1 22 1 40 5 31 6 44 25 20 29 -7
1 12 4 42 7 51 6 55 5 58 -16 2 -13 9 -23 16 -23z m3843 28 c-3 -8 -6 -5 -6 6
-1 11 2 17 5 13 3 -3 4 -12 1 -19z m-5847 -18 c0 -13 7 -20 20 -20 18 0 20 -7
20 -82 -1 -68 -3 -79 -12 -63 -12 19 -12 19 -18 -5 -4 -15 -14 -26 -27 -28
-18 -3 -22 3 -28 47 l-7 51 -44 0 -44 0 0 40 c0 36 3 40 25 40 18 0 25 5 25
20 0 17 7 20 45 20 38 0 45 -3 45 -20z m5327 -37 c-3 -10 -5 -2 -5 17 0 19 2
27 5 18 2 -10 2 -26 0 -35z m93 32 c0 -9 -10 -15 -26 -15 -14 0 -32 7 -40 15
-14 13 -11 15 25 15 30 0 41 -4 41 -15z m-20 -41 c0 -2 -9 -4 -20 -4 -11 0
-20 4 -20 9 0 5 9 7 20 4 11 -3 20 -7 20 -9z m432 -25 c-6 -38 -36 -36 -40 4
-3 23 0 27 21 27 21 0 23 -4 19 -31z m-332 -21 c0 -27 -2 -28 -45 -28 -41 0
-45 2 -45 24 0 25 7 28 78 32 7 0 12 -11 12 -28z m-2190 -18 c-13 -9 -13 -12
3 -24 9 -7 17 -23 17 -35 0 -17 6 -21 35 -21 25 0 33 -4 29 -14 -3 -8 3 -16
15 -19 18 -4 22 1 27 34 5 29 11 39 25 39 12 0 19 7 19 20 0 16 6 20 33 19 17
-1 24 -3 15 -6 -10 -2 -18 -11 -18 -19 0 -8 8 -15 18 -15 16 -1 16 -2 0 -6
-13 -3 -18 -14 -17 -41 0 -20 3 -31 6 -24 10 24 23 11 23 -23 0 -24 5 -35 15
-35 11 0 15 -11 14 -47 -1 -30 -4 -37 -6 -20 -7 46 -23 30 -23 -23 0 -43 -3
-50 -20 -50 -27 0 -25 -28 3 -33 12 -2 3 -5 -20 -6 -36 -1 -43 -4 -43 -22 0
-11 5 -17 10 -14 6 3 10 -3 10 -14 0 -14 6 -21 20 -21 11 0 20 -7 20 -15 0 -8
9 -15 20 -15 12 0 20 -7 20 -17 0 -10 3 -28 6 -39 5 -19 1 -22 -30 -26 -30 -3
-36 -1 -36 14 0 12 -7 18 -21 18 -15 0 -19 -5 -15 -15 4 -11 -1 -15 -19 -15
-22 0 -25 -5 -25 -34 0 -21 -6 -36 -15 -40 -8 -3 -15 -12 -15 -20 0 -7 -12
-17 -27 -21 -20 -5 -23 -9 -13 -15 7 -4 19 -6 27 -3 9 4 13 -4 13 -26 0 -21
-5 -31 -15 -31 -11 0 -15 -11 -15 -40 0 -29 -4 -40 -15 -40 -10 0 -15 -11 -15
-35 0 -30 -3 -35 -22 -34 -17 1 -19 2 -5 6 19 5 21 12 7 33 -6 10 -10 11 -10
3 0 -7 -7 -13 -15 -13 -10 0 -15 -7 -13 -17 2 -12 -4 -19 -19 -21 -13 -2 -23
-11 -24 -20 0 -14 -1 -15 -7 -2 -8 17 -26 20 -39 6 -5 -5 -3 -6 5 -2 6 4 12 2
12 -3 0 -6 -7 -11 -15 -11 -8 0 -15 9 -15 20 0 12 -7 20 -17 21 -17 1 -17 2 0
6 9 2 17 13 17 24 0 16 7 19 45 19 38 0 45 3 45 20 0 13 7 20 20 20 11 0 20
-7 20 -15 0 -8 5 -15 10 -15 6 0 10 21 10 48 l0 48 -40 -4 -40 -4 0 48 c0 30
-4 44 -9 36 -4 -7 -24 -14 -43 -15 -20 -1 -34 -5 -31 -9 2 -5 -13 -7 -34 -7
-38 1 -38 1 -8 9 17 4 22 8 11 9 -12 1 -16 6 -13 16 4 8 2 17 -3 20 -6 4 -9
16 -9 28 1 17 2 18 6 5 7 -29 23 -20 23 12 0 28 2 30 39 30 41 0 51 11 51 56
0 21 -4 24 -40 24 -39 0 -40 1 -40 35 0 35 0 35 45 35 37 0 45 3 45 19 0 10
-9 21 -20 24 -12 3 -20 14 -20 26 0 14 -6 21 -20 21 -17 0 -20 6 -19 38 l2 37
7 -35 c6 -29 8 -31 10 -10 l2 25 8 -25 c6 -18 9 -7 11 45 1 39 2 77 3 85 1 8
9 16 19 18 13 3 17 14 17 48 0 37 3 44 18 42 11 -2 18 4 20 20 3 16 10 22 30
22 21 0 24 -2 12 -10z m-3374 -27 c-7 -7 -26 7 -26 19 0 6 6 6 15 -2 9 -7 13
-15 11 -17z m2782 10 c-16 -2 -40 -2 -55 0 -16 2 -3 4 27 4 30 0 43 -2 28 -4z
m3403 -75 l1 -33 7 30 c7 28 8 27 16 -20 7 -43 9 -47 16 -25 7 24 7 24 8 3 2
-41 67 -25 76 18 5 20 13 29 26 29 10 0 19 7 19 15 0 10 10 15 30 15 l30 0 2
-72 c1 -40 2 -86 2 -102 1 -19 8 -31 21 -37 11 -4 15 -8 9 -8 -15 -1 -15 -54
0 -63 7 -5 4 -8 -7 -8 -12 0 -20 -10 -24 -31 -4 -23 -8 -27 -15 -17 -7 10 -11
10 -15 1 -2 -7 -18 -13 -34 -13 -26 0 -29 -4 -29 -30 0 -22 5 -30 18 -31 14 0
14 -2 -3 -9 -14 -6 5 -9 58 -9 l77 -1 0 -29 c0 -32 -14 -41 -66 -41 -24 0 -34
-5 -34 -15 0 -19 66 -21 73 -2 3 7 6 5 6 -5 1 -15 -7 -18 -43 -18 -39 0 -45 3
-48 22 -2 13 -11 24 -20 26 -14 3 -18 -7 -20 -65 -3 -58 -6 -68 -20 -67 -14 1
-18 -6 -18 -37 0 -32 3 -39 20 -39 11 0 20 -4 20 -10 0 -5 7 -10 15 -10 9 0
15 -10 15 -26 0 -24 -2 -25 -55 -22 -50 3 -55 5 -55 25 0 13 -6 23 -14 23 -8
0 -17 10 -19 23 -3 16 -5 14 -6 -9 -1 -27 -5 -32 -31 -36 -23 -3 -30 -1 -30
12 0 9 5 21 12 28 9 9 8 12 -5 12 -11 0 -18 -9 -18 -22 l-2 -23 -4 23 c-4 18
-11 22 -39 22 -24 0 -34 -5 -34 -15 0 -8 -7 -15 -15 -15 -8 0 -15 9 -15 20 0
12 -7 20 -16 20 -12 0 -15 6 -10 23 3 12 6 30 6 40 0 9 7 17 15 17 8 0 15 9
15 20 0 15 7 20 25 20 24 0 25 3 25 55 0 48 2 55 20 55 13 0 20 7 20 20 0 11
4 20 10 20 5 0 7 -7 4 -15 -4 -9 0 -15 8 -15 10 0 15 13 16 40 2 32 -2 40 -16
41 -10 0 -12 3 -4 6 24 9 12 23 -22 23 -38 0 -37 -2 -40 125 -1 71 1 80 17 77
13 -2 17 4 17 33 0 24 4 35 15 35 10 0 15 10 15 30 0 23 4 30 20 30 16 0 20
-7 21 -32z m-4255 -29 c4 -8 9 -7 15 2 6 10 9 8 9 -8 0 -15 6 -23 18 -23 14 0
15 2 2 10 -13 9 -13 10 0 10 8 0 24 -11 34 -25 10 -14 25 -25 32 -25 8 0 14
-7 14 -15 0 -8 7 -15 15 -15 8 0 15 -9 15 -19 0 -14 5 -18 20 -14 16 4 20 14
20 44 0 28 4 39 15 39 8 0 15 9 15 21 0 17 5 20 33 17 27 -3 32 -7 35 -33 3
-29 4 -30 47 -27 30 3 45 9 45 18 0 8 9 14 20 14 11 0 20 7 20 15 0 9 9 15 25
15 23 0 24 -3 27 -67 2 -52 6 -67 17 -65 24 5 31 -19 31 -110 l0 -87 -37 -3
c-36 -3 -38 -5 -35 -35 3 -26 -1 -32 -20 -36 -21 -4 -20 -4 5 -6 15 0 27 -6
27 -12 0 -6 9 -9 20 -6 15 4 20 0 20 -13 0 -12 -10 -21 -29 -25 -17 -3 -32
-14 -34 -23 -3 -12 -5 -10 -6 6 -1 15 -7 22 -21 22 -18 0 -19 3 -10 20 6 11 7
20 3 20 -13 0 -30 -14 -36 -30 -4 -12 -6 -11 -6 3 -2 31 -31 19 -31 -13 0 -19
5 -30 14 -30 19 0 28 -14 20 -34 -7 -18 -79 -23 -89 -6 -3 6 1 7 9 4 9 -3 16
-1 16 5 0 6 -6 11 -14 11 -9 0 -16 17 -21 45 -6 41 -9 45 -27 39 -14 -4 -18
-2 -14 5 5 7 -8 11 -38 11 -34 0 -46 4 -46 15 0 8 -9 15 -19 15 -26 0 -36 17
-14 23 10 3 3 5 -14 6 -31 1 -33 3 -33 40 0 35 -3 39 -31 45 -17 3 -43 6 -56
6 -18 0 -24 4 -19 15 4 10 -1 15 -14 15 -16 0 -20 -7 -20 -35 0 -34 -1 -35
-37 -35 -36 1 -37 2 -19 15 19 15 19 15 -1 15 -12 0 -24 -8 -26 -17 -3 -10 -5
8 -6 40 -1 47 2 57 16 57 13 0 14 -3 5 -12 -16 -16 -15 -28 2 -28 8 0 17 15
20 35 5 26 12 35 26 35 11 0 20 -7 20 -15 0 -8 7 -15 15 -15 8 0 15 9 15 20 0
11 -7 20 -15 20 -9 0 -15 9 -15 25 0 14 5 25 10 25 6 0 10 8 11 18 0 10 3 12
6 5 11 -29 23 -10 23 37 0 47 11 63 26 39z m-436 -34 c0 -9 -9 -15 -22 -14
-17 1 -19 2 -5 6 9 2 17 9 17 14 0 5 2 9 5 9 3 0 5 -7 5 -15z m3558 -18 c2
-15 7 -27 12 -27 5 0 10 -12 12 -27 2 -22 9 -29 31 -31 15 -2 27 -9 27 -15 1
-7 6 -5 13 4 7 9 29 19 50 23 20 4 37 12 37 18 0 5 -7 8 -15 4 -9 -3 -15 0
-15 9 0 8 7 15 15 15 9 0 15 9 15 25 0 22 4 25 35 25 33 0 35 -2 35 -35 0 -28
-4 -35 -20 -35 -17 0 -20 -7 -20 -50 0 -43 3 -50 20 -50 18 0 20 -7 20 -75 0
-43 -4 -75 -10 -75 -5 0 -10 -7 -10 -15 0 -9 -9 -15 -25 -15 -18 0 -25 -5 -25
-19 0 -24 16 -36 23 -19 3 8 6 6 6 -4 1 -12 -7 -18 -21 -19 -18 -1 -19 -2 -5
-6 20 -5 50 15 41 28 -3 5 2 9 10 9 9 0 16 -9 16 -20 0 -12 11 -31 25 -44 20
-18 25 -33 25 -70 0 -42 2 -46 25 -46 31 0 32 8 3 20 -20 8 -18 9 15 9 36 1
50 -12 25 -22 -7 -3 -3 -6 10 -6 16 -1 22 5 22 19 0 11 -7 20 -15 20 -9 0 -15
9 -15 23 0 18 2 19 10 7 9 -13 11 -13 19 -1 15 24 1 41 -35 41 -19 0 -34 5
-34 11 0 6 7 9 15 5 11 -4 15 2 15 24 0 27 3 30 34 30 l34 0 7 -65 c7 -70 -1
-145 -16 -145 -5 0 -9 -7 -9 -15 0 -9 -9 -15 -22 -14 -17 1 -19 2 -5 6 30 8
19 23 -17 23 -28 0 -35 -4 -39 -22 l-4 -23 -8 23 c-4 12 -15 22 -24 21 -10 0
-11 -2 -3 -6 6 -2 12 -11 12 -19 0 -10 -13 -14 -45 -14 -41 0 -45 2 -45 25 0
18 -5 25 -20 25 -15 0 -20 -7 -20 -25 0 -20 -5 -25 -24 -25 -28 0 -36 21 -36
98 0 50 -1 52 -20 40 -26 -16 -28 -68 -2 -68 12 0 13 -3 5 -8 -7 -5 -14 -21
-15 -36 -2 -27 -4 -28 -45 -22 -38 5 -43 3 -43 -14 0 -15 9 -20 48 -23 l47 -3
-52 -2 c-53 -2 -53 -2 -53 28 0 25 4 30 24 30 23 0 24 1 19 75 -4 51 -2 75 6
75 6 0 11 9 11 20 0 15 7 20 29 20 16 0 32 -6 34 -12 3 -7 6 -1 6 15 1 15 -3
27 -9 27 -5 0 -10 -5 -10 -11 0 -6 -8 -3 -17 7 -11 11 -18 13 -21 5 -4 -12
-82 -16 -82 -3 0 10 -50 32 -72 32 -16 0 -18 11 -18 114 l0 113 40 7 40 6 0
66 c0 57 2 65 18 62 10 -2 18 -14 20 -31z m-3878 13 c0 -5 -7 -10 -15 -10 -8
0 -15 -7 -15 -15 0 -10 -10 -15 -30 -15 -25 0 -30 4 -30 25 0 23 4 25 45 25
25 0 45 -4 45 -10z m3825 -39 c3 -5 1 -12 -5 -16 -5 -3 -10 1 -10 9 0 18 6 21
15 7z m-4328 -27 c-3 -3 -12 -4 -19 -1 -8 3 -5 6 6 6 11 1 17 -2 13 -5z m30
-26 c-3 -7 -5 -2 -5 12 0 14 2 19 5 13 2 -7 2 -19 0 -25z m2140 -10 c-3 -7 -5
-2 -5 12 0 14 2 19 5 13 2 -7 2 -19 0 -25z m2460 -10 c-3 -7 -5 -2 -5 12 0 14
2 19 5 13 2 -7 2 -19 0 -25z m-4649 5 c-10 -2 -28 -2 -40 0 -13 2 -5 4 17 4
22 1 32 -1 23 -4z m2192 -33 c0 -28 28 -25 33 3 4 19 4 18 6 -5 1 -22 -4 -28
-19 -28 -16 0 -20 -7 -20 -30 0 -23 -5 -30 -19 -30 -13 0 -20 9 -24 30 -5 21
-12 30 -27 30 -14 0 -20 7 -20 23 0 20 5 23 45 25 39 1 45 -1 45 -18z m-1597
3 c-7 -2 -19 -2 -25 0 -7 3 -2 5 12 5 14 0 19 -2 13 -5z m4495 -30 c-22 -5
-24 -23 -3 -23 9 0 15 -9 15 -25 0 -17 -5 -25 -17 -25 -29 0 -43 14 -47 48 -3
31 -2 32 33 31 20 -1 28 -3 19 -6z m-1491 -45 c-3 -8 -6 -5 -6 6 -1 11 2 17 5
13 3 -3 4 -12 1 -19z m1420 -10 c-3 -8 -6 -5 -6 6 -1 11 2 17 5 13 3 -3 4 -12
1 -19z m-747 -48 c0 -27 -4 -50 -10 -50 -5 0 -10 23 -10 50 0 28 5 50 10 50 6
0 10 -22 10 -50z m-5032 -22 c-2 -15 -11 -24 -25 -26 -19 -3 -23 1 -23 22 0
21 5 26 26 26 21 0 25 -4 22 -22z m6182 -33 c0 -21 -5 -25 -30 -25 -22 0 -30
5 -30 18 0 25 9 32 37 32 18 0 23 -5 23 -25z m-5163 -15 c3 -11 14 -20 24 -20
16 0 18 -6 12 -45 -6 -44 -5 -45 21 -45 15 0 29 -7 32 -15 8 -19 64 -20 64 -1
0 8 16 16 43 19 23 4 57 9 75 12 29 4 32 2 32 -20 0 -16 6 -25 15 -25 14 0 15
-10 9 -62 -4 -35 -11 -64 -15 -66 -5 -2 -9 -26 -9 -53 0 -37 -4 -49 -15 -49
-10 0 -15 -11 -15 -35 l0 -35 -62 2 -63 1 60 7 60 7 -62 1 c-35 1 -63 4 -63 6
0 22 17 36 41 36 20 0 29 5 29 16 0 13 -10 15 -57 12 -56 -4 -58 -5 -61 -34
-7 -81 -12 -94 -37 -94 -27 0 -26 -4 -30 167 -1 42 -14 69 -22 46 -3 -7 -11
-13 -19 -13 -8 0 -14 -10 -15 -22 -1 -20 -2 -18 -11 7 -5 17 -9 42 -9 58 1 26
-1 27 -44 27 -38 0 -45 -3 -45 -19 0 -14 -5 -18 -20 -14 -10 3 -18 10 -17 15
1 6 -4 13 -12 16 -10 3 -12 0 -8 -12 4 -9 2 -16 -3 -16 -6 0 -10 17 -10 39 0
30 4 40 20 44 17 4 20 14 20 66 0 34 4 61 9 61 5 0 7 -9 4 -20 -4 -14 0 -20
10 -20 10 0 15 7 12 19 -4 21 14 32 44 26 14 -2 21 3 25 21 8 31 55 34 63 4z
m4480 -47 c-2 -16 -4 -5 -4 22 0 28 2 40 4 28 2 -13 2 -35 0 -50z m-2150 25
c-3 -8 -6 -5 -6 6 -1 11 2 17 5 13 3 -3 4 -12 1 -19z m-1805 -36 c-3 -30 -8
-38 -24 -39 -23 -2 -51 -23 -30 -23 7 0 12 -7 12 -15 0 -8 -9 -15 -20 -15 -13
0 -20 -7 -20 -20 0 -11 -4 -20 -10 -20 -5 0 -7 7 -4 15 5 12 -2 14 -40 9 -42
-6 -46 -5 -46 14 0 18 7 21 53 24 46 3 52 6 52 25 0 12 4 25 8 29 4 4 7 18 7
31 0 19 5 23 33 23 32 0 32 -1 29 -38z m1688 -31 c0 -30 4 -38 16 -37 9 0 19
-5 21 -11 3 -9 -8 -13 -37 -13 -38 0 -42 2 -37 20 4 17 0 22 -24 27 -22 4 -29
11 -29 29 0 22 4 24 45 24 l45 0 0 -39z m2945 29 c3 -5 1 -10 -4 -10 -6 0 -11
5 -11 10 0 6 2 10 4 10 3 0 8 -4 11 -10z m-1018 -6 c-3 -3 -12 -4 -19 -1 -8 3
-5 6 6 6 11 1 17 -2 13 -5z m-455 -56 c0 -13 2 -27 3 -33 2 -5 3 -16 4 -22 0
-7 12 -13 26 -13 20 0 25 -5 25 -26 0 -22 -4 -25 -27 -22 -27 3 -27 1 -24 -39
2 -40 1 -43 -23 -43 -24 0 -26 4 -26 40 0 36 -2 40 -25 40 -20 0 -25 5 -25 25
0 20 5 25 25 25 23 0 25 4 25 45 0 38 3 45 20 45 14 0 20 -7 22 -22z m1375
-48 c-3 -24 -1 -41 7 -44 6 -3 2 -5 -9 -3 -27 3 -36 87 -9 87 14 0 16 -7 11
-40z m-437 5 c0 -8 -7 -15 -15 -15 -8 0 -15 5 -15 11 0 5 5 7 10 4 6 -3 10 -1
10 4 0 6 2 11 5 11 3 0 5 -7 5 -15z m-500 -35 c0 -36 -2 -40 -25 -40 -22 0
-25 4 -25 40 0 36 3 40 25 40 23 0 25 -4 25 -40z m900 20 c0 -5 -8 -10 -17
-10 -15 0 -16 2 -3 10 19 12 20 12 20 0z m-2753 -16 c-3 -3 -12 -4 -19 -1 -8
3 -5 6 6 6 11 1 17 -2 13 -5z m-2937 -39 c0 -20 5 -25 25 -25 16 0 25 -6 25
-15 0 -10 10 -15 31 -15 24 0 30 -4 27 -17 -2 -11 -14 -19 -31 -21 -21 -3 -27
-9 -27 -27 0 -20 -7 -25 -35 -31 -25 -4 -35 -11 -35 -25 0 -16 8 -19 46 -19
41 0 45 2 39 20 -3 11 -3 20 2 20 5 0 10 -11 11 -25 1 -21 -3 -25 -23 -25 -18
0 -25 -5 -25 -20 0 -17 -7 -20 -49 -20 -44 0 -50 -2 -48 -20 2 -25 14 -26 20
-2 4 13 5 11 6 -5 1 -14 -5 -23 -14 -23 -8 0 -15 -7 -15 -15 0 -9 9 -15 24
-15 22 0 23 -2 13 -25 -7 -14 -17 -25 -24 -25 -6 0 -9 -10 -7 -22 2 -13 1 -17
-2 -10 -5 10 -9 9 -20 -5 -12 -16 -13 -11 -14 45 l0 62 -30 0 c-24 0 -30 -4
-30 -21 0 -11 4 -18 9 -14 5 3 12 1 16 -5 3 -5 -1 -10 -9 -10 -9 0 -17 -9 -17
-20 -1 -11 -2 -26 -3 -32 -1 -14 -28 -25 -63 -27 -19 -1 -23 4 -23 29 0 23 4
30 20 30 13 0 20 7 20 20 0 15 -7 20 -25 20 -20 0 -25 5 -24 23 1 16 2 18 6 5
9 -36 33 -20 33 22 0 33 3 40 20 40 15 0 20 7 20 25 0 14 -4 25 -10 25 -5 0
-10 7 -10 15 0 8 -9 15 -20 15 -18 0 -20 7 -20 59 0 50 3 59 20 64 13 3 20 14
20 30 0 31 11 34 118 36 81 1 82 1 82 -24z m1510 -29 c0 -47 9 -66 31 -66 15
0 19 -7 19 -36 0 -31 -3 -36 -20 -31 -15 4 -22 -1 -26 -19 -9 -37 -44 -32 -44
6 0 23 -4 30 -20 30 -31 0 -28 50 3 51 21 1 21 1 -3 9 -24 8 -24 8 -2 9 18 1
22 7 22 34 0 36 6 47 27 47 8 0 13 -12 13 -34z m2182 -15 c-4 -47 -3 -49 27
-53 28 -4 31 -2 31 24 0 21 -5 28 -20 28 -15 0 -20 7 -20 26 0 24 2 25 52 22
50 -3 53 -5 58 -33 4 -21 8 -26 14 -17 4 7 5 19 2 27 -3 8 -1 15 4 15 6 0 10
-18 10 -40 0 -33 3 -40 20 -40 15 0 20 -7 20 -25 0 -16 -6 -25 -15 -25 -36 0
-77 -79 -42 -81 9 0 9 -2 0 -5 -18 -8 -4 -34 18 -34 21 0 26 25 7 33 -8 3 -6
6 5 6 12 1 17 -7 17 -24 0 -21 -5 -25 -30 -25 -23 0 -30 -4 -30 -20 0 -11 -7
-20 -15 -20 -8 0 -15 -5 -15 -11 0 -5 5 -7 10 -4 6 3 10 1 10 -4 0 -6 11 -11
25 -11 17 0 25 -5 25 -17 0 -11 -3 -14 -8 -7 -4 6 -19 13 -34 16 -22 4 -28 1
-28 -13 0 -24 -20 -25 -21 -1 0 12 -3 10 -11 -8 l-11 -25 -6 30 c-6 31 -31 47
-31 20 0 -8 -4 -15 -10 -15 -5 0 -10 8 -10 17 0 15 -2 14 -15 -3 -14 -19 -14
-18 -15 4 0 12 -6 22 -12 23 -10 0 -10 2 0 6 6 2 12 13 12 23 0 10 -6 21 -12
23 -8 3 -6 6 5 6 9 1 17 6 17 12 0 5 5 7 10 4 6 -4 10 8 10 29 0 34 2 36 33
38 17 1 5 4 -28 7 -59 6 -60 7 -63 39 -3 29 -1 32 22 32 24 0 26 3 26 50 0 28
3 50 8 50 4 0 5 -22 4 -49z m2048 24 c0 -28 -24 -34 -34 -9 -10 26 -7 34 14
34 15 0 20 -7 20 -25z m-5630 -15 c0 -5 -4 -10 -10 -10 -5 0 -10 5 -10 10 0 6
5 10 10 10 6 0 10 -4 10 -10z m2386 -7 c-1 -13 7 -19 27 -21 24 -3 27 -8 27
-38 0 -30 3 -34 25 -34 20 0 25 -5 25 -26 0 -23 -3 -26 -25 -22 -23 5 -25 2
-26 -31 -1 -25 -3 -29 -6 -13 -4 19 -9 23 -26 18 -12 -3 -28 -6 -34 -6 -22 0
-14 -18 10 -23 20 -4 19 -4 -4 -6 -19 -1 -28 5 -32 19 -5 18 -11 20 -46 14
-41 -7 -41 -6 -41 26 0 23 -5 33 -20 37 -11 3 -20 14 -20 24 0 12 7 19 20 19
13 0 20 7 20 20 0 11 3 19 8 19 4 -1 24 -1 45 0 30 1 37 5 37 21 0 13 7 20 19
20 12 0 18 -7 17 -17z m2449 -22 c-3 -5 5 -12 17 -14 17 -3 15 -5 -9 -6 -25
-1 -31 2 -27 14 4 8 10 15 16 15 5 0 7 -4 3 -9z m114 -8 c12 3 24 1 27 -4 3
-5 -11 -9 -30 -9 -28 0 -36 4 -36 18 0 13 2 14 9 3 5 -8 18 -12 30 -8z m854
-21 c18 1 35 6 39 12 5 7 8 4 8 -6 0 -15 -9 -18 -54 -18 -49 0 -55 -2 -59 -22
-4 -20 -4 -19 -6 5 -1 18 4 27 14 27 8 0 16 8 16 18 1 15 2 15 6 0 3 -11 14
-16 36 -16z m-4356 12 c-3 -3 -12 -4 -19 -1 -8 3 -5 6 6 6 11 1 17 -2 13 -5z
m-906 -39 c5 4 9 1 9 -4 0 -6 -5 -11 -11 -11 -7 0 -10 -14 -7 -35 4 -31 1 -35
-19 -35 -21 0 -23 5 -23 45 0 33 4 45 15 45 8 0 16 6 16 13 1 6 3 4 6 -6 2 -9
9 -15 14 -12z m736 -17 c-3 -7 -5 -2 -5 12 0 14 2 19 5 13 2 -7 2 -19 0 -25z
m4723 22 c0 -5 -15 -9 -32 -9 l-33 1 30 8 c17 4 31 8 33 9 1 0 2 -3 2 -9z
m-4513 -16 c-3 -3 -12 -4 -19 -1 -8 3 -5 6 6 6 11 1 17 -2 13 -5z m4753 -64
c0 -13 -7 -20 -20 -20 -13 0 -20 7 -20 20 0 13 7 20 20 20 13 0 20 -7 20 -20z
m-4352 -37 c-10 -2 -28 -2 -40 0 -13 2 -5 4 17 4 22 1 32 -1 23 -4z m3492 -43
c0 -43 3 -50 19 -50 11 0 22 8 24 18 3 9 6 -3 7 -28 1 -47 17 -98 20 -70 2 8
5 2 9 -14 3 -17 9 -29 14 -28 4 1 16 2 27 2 17 0 20 7 20 45 0 25 4 45 9 45 5
0 12 9 16 19 4 13 17 20 45 23 39 3 40 3 40 -29 0 -23 5 -33 15 -33 10 0 15
-11 15 -35 0 -19 -4 -35 -10 -35 -5 0 -10 -9 -10 -20 0 -11 5 -20 10 -20 6 0
10 -16 10 -35 0 -28 4 -35 20 -35 15 0 20 -7 21 -27 0 -25 1 -26 9 -8 8 19 9
19 9 -3 1 -12 8 -25 16 -28 18 -7 20 -25 3 -22 -6 2 -14 -5 -16 -14 -2 -11 2
-18 12 -18 8 0 16 -10 18 -22 2 -16 9 -22 21 -20 11 2 17 -3 16 -15 0 -10 -3
-13 -5 -6 -3 7 -12 9 -19 7 -11 -5 -12 -9 -2 -19 7 -7 15 -11 20 -8 4 2 7 -3
7 -12 0 -9 -4 -14 -8 -11 -4 2 -14 1 -22 -4 -12 -7 -9 -11 10 -19 23 -9 22
-10 -13 -10 -31 -1 -37 2 -35 17 2 12 -3 16 -19 15 -17 -2 -23 2 -23 17 0 15
-7 20 -25 20 -24 0 -25 -3 -25 -55 l0 -55 -35 0 c-33 0 -35 2 -35 34 0 28 -4
36 -22 39 -20 5 -20 5 2 4 20 -2 26 -8 28 -34 3 -27 7 -33 28 -33 22 0 24 3
24 53 0 74 -7 81 -74 74 l-56 -6 0 30 c0 30 -14 35 -72 30 -10 -1 -18 3 -18 8
0 6 -4 11 -8 11 -21 0 -6 -26 16 -28 40 -3 39 -12 -1 -12 -30 0 -37 4 -37 20
0 15 -7 20 -26 20 -14 0 -23 -4 -20 -9 3 -5 -3 -11 -14 -14 -16 -4 -20 0 -20
19 0 23 11 28 58 27 6 -1 12 7 12 16 0 19 -20 52 -20 34 0 -21 -159 -18 -167
3 -3 8 -12 13 -19 10 -11 -4 -14 10 -14 69 0 67 -2 75 -19 75 -12 0 -20 9 -23
25 -4 20 -1 25 15 25 16 0 19 5 14 30 -5 22 -3 30 8 30 8 0 15 -7 15 -15 0 -8
7 -15 16 -15 8 0 12 5 9 10 -4 6 7 10 27 10 51 0 78 11 78 30 0 10 9 20 20 23
11 3 20 12 20 21 0 11 9 16 30 16 29 0 30 -1 30 -50z m-3480 10 c0 -17 7 -20
44 -20 l44 0 7 -59 c5 -46 10 -58 21 -54 10 4 14 -4 14 -31 0 -20 -4 -36 -10
-36 -16 0 -49 -33 -43 -42 3 -5 -4 -12 -14 -14 -28 -8 -30 -64 -2 -64 21 0 26
25 7 33 -7 3 6 6 28 6 29 1 44 -4 48 -15 3 -8 10 -12 16 -9 6 4 10 -5 9 -22 0
-15 -3 -22 -6 -15 -3 7 -23 12 -49 12 -40 0 -44 -2 -44 -25 0 -19 -5 -25 -22
-26 -13 0 -17 -3 -10 -6 28 -11 9 -23 -38 -23 -35 0 -50 -4 -49 -12 1 -7 1
-30 0 -50 -1 -31 -5 -38 -21 -38 -13 0 -20 7 -20 20 0 11 -7 20 -15 20 -9 0
-15 9 -15 25 0 14 4 25 9 25 5 0 11 11 13 25 4 18 1 25 -11 26 -13 1 -13 2 2
6 9 2 17 13 17 24 0 12 7 19 20 19 11 0 20 5 20 10 0 6 -9 10 -20 10 -11 0
-20 5 -20 10 0 6 -9 10 -20 10 -11 0 -20 -4 -20 -10 0 -5 -12 -10 -26 -10 -19
0 -25 -4 -22 -17 2 -10 9 -17 15 -16 6 1 13 -9 16 -22 3 -21 0 -25 -19 -25
-13 0 -27 1 -31 2 -5 1 -10 -11 -13 -28 -4 -25 -10 -29 -43 -32 -27 -2 -37 1
-37 12 0 24 11 46 21 40 5 -3 9 0 9 5 0 6 -8 12 -17 12 -10 1 -2 4 17 8 26 4
36 12 38 29 3 17 -2 22 -17 22 -18 0 -21 6 -20 38 1 37 1 37 9 7 4 -16 8 -22
9 -12 0 10 8 25 16 33 13 14 15 14 15 1 0 -10 7 -13 20 -10 13 3 20 14 20 29
0 21 -5 24 -35 24 -24 0 -35 5 -35 15 0 8 -9 15 -20 15 -11 0 -20 7 -20 15 0
8 -4 15 -10 15 -6 0 -10 27 -10 60 l0 60 30 0 c28 0 30 -3 30 -36 l0 -36 48 6
c26 3 53 6 60 7 6 1 12 8 12 16 0 7 7 13 15 13 21 0 19 20 -2 21 -17 1 -17 2
0 6 9 2 17 13 17 24 0 16 7 19 45 19 38 0 45 -3 45 -20z m1570 -13 c0 -18 2
-19 10 -7 6 10 10 11 10 3 0 -7 7 -13 15 -13 8 0 15 -9 15 -20 0 -17 -7 -20
-45 -20 l-45 0 0 39 c0 22 5 41 13 44 18 7 27 -2 27 -26z m838 -10 c4 -41 18
-49 25 -14 2 12 5 -8 6 -45 1 -53 4 -68 16 -68 12 0 15 -13 15 -55 0 -42 -3
-55 -15 -55 -8 0 -15 -7 -15 -15 0 -12 15 -15 71 -15 62 0 71 2 76 20 3 11 13
20 22 19 10 0 11 -2 4 -6 -19 -7 -16 -19 6 -20 26 -2 71 -32 71 -47 0 -7 -5
-17 -10 -22 -7 -7 -6 -11 5 -11 8 0 15 7 16 16 0 12 3 11 9 -4 7 -17 9 -17 9
-2 1 9 5 17 10 17 5 0 8 -23 8 -50 -2 -34 2 -50 11 -50 24 0 52 -40 52 -75 0
-26 4 -35 18 -36 16 -1 16 -2 0 -6 -21 -5 -24 -39 -5 -46 6 -3 -2 -6 -19 -6
-28 -1 -31 2 -29 24 3 22 -1 25 -26 25 -24 0 -29 4 -29 25 0 20 -5 24 -24 23
-25 -2 -36 -32 -36 -100 0 -24 -4 -28 -30 -28 -16 0 -30 5 -30 10 0 6 4 10 9
10 13 0 20 39 8 43 -9 3 -9 11 0 30 12 25 11 27 -10 28 -12 0 -47 4 -78 8 -49
6 -58 4 -68 -12 -7 -10 -9 -22 -6 -27 4 -6 -9 -10 -29 -10 -32 0 -36 -3 -36
-25 0 -17 -6 -25 -17 -25 -16 -1 -16 -2 1 -15 19 -14 18 -15 -12 -15 -30 0
-32 2 -32 35 0 37 34 85 44 62 2 -7 5 -4 5 6 1 9 -3 17 -8 17 -5 0 -8 8 -7 17
0 10 -8 19 -19 21 -31 6 -42 21 -25 32 13 8 12 10 -2 10 -14 0 -18 -8 -18 -35
0 -33 -2 -35 -35 -35 -28 0 -35 -4 -35 -20 0 -16 -7 -20 -34 -20 -31 0 -34 3
-38 35 -4 33 -2 35 24 35 21 0 28 5 28 20 0 11 7 20 15 20 8 0 15 9 15 20 0
15 7 20 26 20 19 0 25 4 20 15 -4 11 2 15 24 15 22 0 28 4 24 15 -5 11 1 15
20 15 15 0 26 -6 26 -13 0 -8 7 -14 15 -14 21 0 20 63 -1 71 -8 3 -13 2 -10
-2 12 -21 -17 -30 -110 -35 -91 -5 -103 -4 -122 14 -12 10 -28 19 -37 19 -11
0 -15 10 -15 35 0 19 5 35 10 35 6 0 10 -14 10 -32 0 -62 10 -20 16 68 4 49
11 94 16 99 6 6 7 4 3 -7 -4 -11 -2 -18 4 -18 19 0 13 40 -6 41 -17 1 -17 2 0
6 11 3 17 14 17 34 0 27 3 30 28 27 21 -2 28 -9 30 -30 2 -16 9 -28 18 -28 8
0 14 -7 14 -15 0 -11 11 -15 43 -14 23 1 32 4 20 6 -38 7 -26 23 17 23 39 0
40 1 40 33 0 61 33 63 38 4z m817 3 c-4 -6 -11 -7 -17 -4 -7 5 -9 0 -6 -14 4
-12 2 -22 -3 -22 -5 0 -9 11 -9 25 0 19 5 25 21 25 11 0 17 -5 14 -10z m-5538
-26 c-3 -3 -12 -4 -19 -1 -8 3 -5 6 6 6 11 1 17 -2 13 -5z m5133 -64 c0 -17
-7 -20 -45 -20 -38 0 -45 3 -45 20 0 17 7 20 45 20 38 0 45 -3 45 -20z m-1100
-6 c0 -2 -9 -4 -20 -4 -11 0 -20 4 -20 9 0 5 9 7 20 4 11 -3 20 -7 20 -9z
m-2506 -69 c5 -27 12 -45 21 -45 15 0 25 -22 25 -56 0 -17 6 -24 19 -24 14 0
20 -10 25 -39 3 -22 3 -47 0 -55 -4 -11 0 -16 12 -17 17 -1 17 -2 1 -6 -26 -7
-10 -23 24 -23 28 0 29 -2 29 -45 0 -33 4 -45 15 -45 8 0 15 6 15 13 0 8 4 7
10 -3 5 -8 10 -30 10 -47 0 -31 -2 -33 -35 -33 -21 0 -35 -5 -35 -12 0 -7 -3
-23 -6 -35 -4 -15 -1 -22 13 -26 10 -3 -3 -5 -29 -6 -27 0 -48 4 -48 9 0 6 7
10 15 10 11 0 15 19 17 88 2 48 -1 97 -6 110 -13 33 -36 28 -36 -8 0 -27 -3
-30 -31 -30 l-31 0 7 -47 c4 -27 11 -49 16 -51 5 -2 9 -10 9 -18 0 -8 5 -14
10 -14 6 0 10 -20 10 -44 0 -46 -11 -56 -69 -56 -21 0 -22 2 -10 17 10 11 10
14 2 9 -9 -5 -13 0 -13 13 0 16 -6 21 -25 21 -19 0 -25 -5 -25 -23 0 -12 9
-29 20 -37 28 -20 25 -30 -10 -30 -24 0 -30 4 -30 21 0 12 -5 19 -12 16 -7 -2
-12 -12 -12 -21 1 -12 -7 -16 -37 -16 -21 0 -39 4 -39 10 0 5 6 7 14 4 7 -3
16 2 19 10 4 9 2 16 -3 16 -6 0 -10 34 -10 77 0 42 -3 74 -6 71 -8 -9 -12 -37
-13 -90 -1 -27 -5 -48 -11 -48 -5 0 -10 7 -10 15 0 10 -10 15 -27 16 -16 0
-22 3 -15 6 6 2 12 16 12 29 0 13 5 24 10 24 6 0 10 15 10 33 0 21 7 38 20 47
28 20 25 40 -5 40 -22 0 -25 4 -25 40 0 33 -3 40 -20 40 -19 0 -20 7 -20 120
l0 120 40 0 c36 0 40 -2 40 -25 0 -24 3 -25 60 -25 53 0 60 2 60 20 0 13 7 20
20 20 16 0 20 7 20 30 0 25 4 30 24 30 20 0 25 -6 30 -45z m3609 16 c-2 -15 3
-21 17 -21 16 0 20 -7 20 -30 0 -25 -4 -30 -25 -30 -20 0 -25 -5 -25 -25 0
-14 -4 -25 -9 -25 -5 0 -7 9 -4 20 3 11 0 20 -6 20 -6 0 -12 -10 -12 -22 l-2
-23 -4 23 c-3 14 -12 22 -24 22 -33 0 -21 27 16 34 34 7 51 36 20 36 -8 0 -15
8 -15 18 0 14 2 15 10 2 5 -8 10 -12 11 -7 1 4 3 12 4 17 1 6 3 13 4 16 3 16
26 -6 24 -25z m-4475 2 c-10 -2 -18 -11 -18 -20 0 -12 8 -14 38 -10 20 3 29 3
20 1 -10 -3 -18 -13 -18 -23 0 -14 6 -17 29 -13 27 4 29 2 36 -40 3 -23 9 -51
12 -62 3 -12 1 -16 -6 -12 -6 4 -11 2 -11 -3 0 -6 7 -11 15 -11 8 0 15 -7 15
-15 0 -11 -11 -15 -43 -15 -30 0 -52 -7 -67 -20 -18 -16 -37 -20 -92 -20 -37
0 -68 -4 -68 -9 0 -21 -52 -18 -76 4 -27 25 -33 75 -9 75 14 0 20 27 16 73 -2
11 5 17 20 17 16 0 20 5 16 20 -4 16 0 20 19 20 21 0 24 3 18 25 -5 20 -2 25
12 25 16 0 17 -2 4 -10 -24 -15 2 -31 39 -24 l33 7 -28 12 -29 12 30 8 c17 4
35 8 40 10 6 2 24 3 40 3 17 0 22 -2 13 -5z m635 0 c-7 -2 -21 -2 -30 0 -10 3
-4 5 12 5 17 0 24 -2 18 -5z m1881 -29 c3 -9 6 -41 7 -72 0 -31 3 -51 6 -44 2
6 9 10 14 6 5 -3 9 13 9 35 0 39 2 41 30 41 21 0 28 -4 24 -14 -3 -8 -15 -17
-27 -19 -12 -2 -5 -5 17 -6 34 -1 38 1 33 19 -3 11 -1 20 4 20 9 0 13 -15 10
-34 -1 -6 87 -4 127 4 1 0 2 7 2 16 0 9 9 18 20 21 11 3 20 9 20 14 0 5 7 9
15 9 8 0 15 -7 15 -15 0 -8 7 -15 15 -15 11 0 15 -11 15 -40 0 -36 3 -40 24
-40 21 0 24 -4 20 -22 -8 -39 6 -108 22 -108 10 0 14 -11 13 -37 -1 -34 -2
-35 -9 -13 -4 14 -9 21 -11 15 -6 -25 -7 -32 -8 -57 -1 -20 -6 -28 -20 -28
-14 0 -18 -5 -14 -19 4 -16 0 -18 -23 -13 -19 3 -25 1 -20 -7 4 -6 36 -11 82
-11 l74 0 0 -45 0 -45 -45 0 c-38 0 -45 3 -45 19 0 11 8 21 18 24 9 2 -4 7
-30 11 -27 5 -48 12 -48 16 0 4 -29 7 -65 6 -60 -1 -65 -3 -65 -23 0 -14 6
-23 16 -23 11 0 14 -8 12 -32 -3 -29 -6 -33 -33 -33 -23 0 -31 5 -33 21 -2 17
-8 20 -33 16 -24 -3 -28 -1 -23 12 4 12 0 16 -15 16 -14 0 -21 6 -21 19 0 21
-31 35 -72 32 -26 -2 -28 0 -28 38 0 34 -3 41 -20 41 -11 0 -20 -4 -20 -10 0
-5 -7 -7 -15 -4 -12 5 -15 -2 -15 -32 0 -39 13 -38 23 1 3 13 5 10 6 -11 1
-28 -3 -32 -30 -38 -51 -10 -59 -8 -59 19 0 17 -5 25 -18 25 -17 0 -18 12 -21
129 -2 105 1 131 13 144 9 9 16 20 16 26 0 5 9 13 20 16 11 3 20 13 20 21 0 8
7 14 15 14 9 0 15 9 15 23 0 32 7 37 51 37 24 0 39 -5 43 -16z m3236 -26 c0
-14 5 -18 15 -14 8 3 15 1 15 -4 0 -4 -13 -11 -30 -15 -16 -4 -30 -13 -30 -20
0 -9 6 -12 15 -9 8 4 15 1 15 -5 0 -6 -7 -11 -15 -11 -8 0 -15 -4 -15 -9 0 -5
-9 -11 -20 -14 -14 -4 -20 -14 -21 -34 0 -15 -3 -22 -6 -15 -2 6 -11 12 -19
12 -8 0 -14 9 -14 20 0 11 -7 20 -16 20 -8 0 -13 -4 -9 -9 3 -6 -3 -15 -12
-21 -16 -10 -16 -11 4 -7 13 3 24 -1 27 -10 5 -11 2 -13 -10 -9 -8 3 -22 6
-30 6 -9 0 -14 11 -14 30 0 29 2 30 44 30 42 0 43 1 38 28 l-6 27 -7 -25 -7
-25 -1 26 c-1 15 5 29 14 33 8 3 15 14 15 25 0 15 8 21 33 23 41 4 47 1 47
-24z m-5063 0 c-3 -8 -6 -5 -6 6 -1 11 2 17 5 13 3 -3 4 -12 1 -19z m1553 -19
c-5 -18 -7 -35 -5 -39 2 -4 5 -23 7 -43 2 -30 6 -37 23 -38 18 0 18 -1 -4 -10
-15 -6 -21 -15 -17 -24 4 -10 -1 -15 -14 -15 -15 0 -20 7 -20 25 0 14 -5 25
-11 25 -8 0 -8 5 1 15 10 13 9 15 -8 15 -11 0 -23 -8 -25 -17 -3 -10 -5 6 -6
35 -1 46 1 52 20 52 11 0 18 4 15 9 -11 17 6 41 29 41 22 0 23 -3 15 -31z
m-1970 -35 c0 -14 4 -23 10 -19 6 3 10 1 10 -4 0 -6 -4 -11 -10 -11 -5 0 -10
-11 -10 -25 0 -16 -6 -25 -15 -25 -8 0 -24 -9 -35 -20 -11 -11 -29 -20 -40
-20 -13 0 -20 7 -20 20 0 13 7 20 20 20 11 0 20 7 20 15 0 8 9 15 20 15 15 0
20 7 20 25 0 20 -5 25 -25 25 -14 0 -25 5 -25 11 0 7 12 9 36 4 24 -4 34 -3
29 4 -3 6 -1 11 4 11 6 0 11 -12 11 -26z m-133 -76 c-3 -8 -6 -5 -6 6 -1 11 2
17 5 13 3 -3 4 -12 1 -19z m4836 15 c-7 -2 -21 -2 -30 0 -10 3 -4 5 12 5 17 0
24 -2 18 -5z m-4421 -38 c-2 -14 -6 -25 -8 -25 -2 0 -4 11 -4 25 0 14 4 25 9
25 4 0 6 -11 3 -25z m4452 -20 c3 -8 1 -15 -4 -15 -6 0 -10 -9 -10 -21 0 -16
4 -19 20 -14 11 4 20 2 20 -4 0 -7 -22 -11 -52 -11 l-53 0 -2 40 -3 40 39 0
c25 0 41 -5 45 -15z m-4854 -26 c0 -16 -5 -20 -20 -16 -13 3 -20 0 -20 -9 0
-8 -10 -14 -24 -14 -13 0 -26 -4 -28 -9 -1 -5 -16 -11 -33 -13 -16 -1 -33 -7
-36 -11 -3 -5 -25 -11 -48 -14 -25 -4 -41 -11 -41 -19 0 -8 -4 -14 -10 -14 -5
0 -10 5 -10 10 0 6 -4 10 -10 10 -5 0 -10 -7 -10 -15 0 -12 -16 -15 -84 -15
-46 0 -98 -3 -115 -6 -21 -4 -31 -3 -31 5 0 7 5 9 10 6 6 -3 10 -1 10 4 0 6
-7 11 -15 11 -11 0 -15 11 -15 40 0 34 3 40 21 40 13 0 20 -6 18 -17 -4 -46
-4 -46 94 -39 109 8 137 14 137 31 0 14 43 25 96 25 27 0 34 4 34 20 0 22 40
29 40 8 0 -7 5 -5 11 5 6 11 22 17 44 17 29 0 35 -4 35 -21z m4880 6 c0 -8 -7
-15 -16 -15 -14 0 -14 3 -4 15 7 8 14 15 16 15 2 0 4 -7 4 -15z m-5330 -9 c0
-2 -9 -6 -20 -9 -11 -3 -20 -1 -20 4 0 5 9 9 20 9 11 0 20 -2 20 -4z m4137
-28 c-3 -8 -6 -5 -6 6 -1 11 2 17 5 13 3 -3 4 -12 1 -19z m1386 15 c-7 -2 -19
-2 -25 0 -7 3 -2 5 12 5 14 0 19 -2 13 -5z m-10 -20 c-7 -2 -19 -2 -25 0 -7 3
-2 5 12 5 14 0 19 -2 13 -5z m-1833 -33 c0 -22 4 -28 15 -24 9 4 15 0 15 -10
0 -10 9 -16 25 -16 18 0 25 -5 25 -20 0 -14 -6 -20 -22 -19 -17 1 -19 2 -5 6
23 6 22 23 -3 23 -11 0 -20 -7 -20 -15 0 -8 -7 -15 -15 -15 -11 0 -15 -12 -15
-50 0 -43 -3 -50 -20 -50 -17 0 -20 7 -20 50 l0 50 -35 0 c-28 0 -35 4 -35 20
0 15 7 20 25 20 17 0 25 6 25 18 0 14 2 15 10 2 7 -11 10 -5 10 23 0 30 4 37
20 37 16 0 20 -7 20 -30z m1895 10 c3 -5 -3 -10 -15 -10 -12 0 -18 5 -15 10 3
6 10 10 15 10 5 0 12 -4 15 -10z m-5955 -50 c0 -13 -7 -20 -20 -20 -19 0 -27
20 -13 33 13 14 33 6 33 -13z m4750 -50 c0 -13 -6 -20 -17 -19 -11 0 -13 3 -5
6 6 2 12 11 12 19 0 8 2 14 5 14 3 0 5 -9 5 -20z m1829 -40 c23 0 23 -31 -1
-38 -10 -2 -18 -13 -18 -23 0 -12 -7 -19 -20 -19 -15 0 -20 7 -20 25 0 18 -5
25 -20 25 -13 0 -20 7 -20 20 0 16 5 19 33 15 17 -3 26 -3 20 1 -19 9 -16 42
5 46 12 3 18 -4 20 -24 2 -19 9 -28 21 -28z m-4029 46 c0 -3 -4 -8 -10 -11 -5
-3 -10 -1 -10 4 0 6 5 11 10 11 6 0 10 -2 10 -4z m30 -61 c0 -20 -5 -25 -25
-25 -20 0 -25 5 -25 25 0 20 5 25 25 25 20 0 25 -5 25 -25z m-1519 -32 c1 -27
3 -40 6 -30 6 24 33 22 33 -3 0 -13 -7 -20 -20 -20 -15 0 -20 -7 -20 -25 0
-20 -5 -25 -22 -24 -17 1 -19 2 -5 6 9 2 17 13 17 24 0 16 -8 19 -42 20 -24 1
-35 3 -25 6 11 3 16 11 13 19 -3 8 1 14 9 14 10 0 15 10 15 30 0 23 4 30 20
30 17 0 20 -7 21 -47z m1559 32 c0 -8 -8 -15 -17 -14 -13 0 -14 2 -4 6 11 5
11 7 0 14 -11 7 -10 9 4 9 9 0 17 -7 17 -15z m-913 -17 c-3 -8 -6 -5 -6 6 -1
11 2 17 5 13 3 -3 4 -12 1 -19z m3821 -10 c-2 -15 -11 -24 -25 -26 -19 -3 -23
1 -23 22 0 21 5 26 26 26 21 0 25 -4 22 -22z m-4039 -55 c0 -25 -1 -26 -9 -8
-12 27 -12 35 0 35 6 0 10 -12 9 -27z m1971 1 c0 -8 -5 -12 -10 -9 -6 4 -8 11
-5 16 9 14 15 11 15 -7z m-1430 -44 c0 -11 -7 -20 -15 -20 -8 0 -15 9 -15 20
0 11 7 20 15 20 8 0 15 -9 15 -20z m-490 0 c0 -5 -9 -10 -21 -10 -11 0 -17 5
-14 10 3 6 13 10 21 10 8 0 14 -4 14 -10z m47 -6 c-3 -3 -12 -4 -19 -1 -8 3
-5 6 6 6 11 1 17 -2 13 -5z m-1247 -25 c0 -24 -23 -21 -28 4 -2 10 3 17 12 17
10 0 16 -9 16 -21z m5660 -164 c0 -20 -5 -25 -25 -25 -20 0 -25 5 -25 25 0 20
5 25 25 25 20 0 25 -5 25 -25z m-5130 -6 c0 -12 8 -23 19 -26 24 -6 45 -50 28
-57 -7 -2 -2 -5 11 -5 15 -1 22 -7 22 -21 0 -16 7 -20 35 -20 28 0 35 -4 35
-20 0 -13 7 -20 20 -20 13 0 20 -7 20 -20 0 -10 6 -23 14 -27 8 -4 16 -17 18
-28 2 -11 10 -19 17 -17 7 1 19 -2 25 -8 7 -5 16 -7 19 -3 4 3 9 -2 13 -11 7
-17 64 -23 64 -6 0 6 7 10 15 10 10 0 15 10 15 34 0 32 3 35 33 38 29 3 32 6
35 41 3 29 7 37 23 37 12 0 19 7 19 20 0 11 7 20 15 20 9 0 15 9 15 25 0 20 5
25 25 25 18 0 25 5 25 20 0 16 7 20 30 20 17 0 30 5 30 10 0 6 37 10 90 10
l90 0 0 -496 0 -496 -94 4 c-52 1 -98 6 -102 10 -8 8 -8 0 -4 293 1 116 -1
227 -5 248 -6 33 -10 37 -37 37 -25 0 -29 -3 -25 -20 3 -13 0 -20 -9 -20 -10
0 -14 -12 -14 -40 0 -22 -4 -40 -10 -40 -5 0 -7 7 -4 15 4 9 0 15 -10 15 -9 0
-16 -8 -16 -19 0 -14 -5 -18 -20 -14 -16 4 -20 0 -20 -21 0 -19 -5 -26 -16
-24 -10 2 -19 -2 -21 -9 -2 -6 6 -13 19 -16 13 -2 5 -5 -19 -6 -36 -1 -43 -4
-43 -21 0 -18 -7 -20 -54 -20 -39 0 -55 4 -60 16 -3 8 -2 12 4 9 6 -3 10 -1
10 4 0 6 -17 11 -37 11 -28 0 -34 3 -23 10 9 6 10 10 3 10 -6 0 -15 9 -18 20
-3 11 -11 20 -16 20 -6 0 -7 -4 -4 -10 3 -5 1 -10 -4 -10 -6 0 -12 10 -12 23
-1 12 -2 29 -3 37 0 8 -13 16 -28 18 -20 2 -28 9 -28 23 0 12 -7 19 -20 19
-13 0 -20 7 -20 20 0 11 -5 20 -11 20 -5 0 -8 3 -6 8 3 4 -10 7 -29 7 l-34 0
0 -301 0 -300 -100 -2 -100 -1 0 480 c0 370 3 483 13 494 9 10 38 14 110 15
92 0 97 -1 97 -21z m3521 -101 c1 -68 1 -131 0 -140 -2 -12 5 -18 18 -18 18 0
21 -6 21 -45 0 -27 5 -45 11 -45 8 0 10 14 6 40 -3 22 -1 40 4 40 9 0 13 -54
10 -117 -1 -27 2 -33 19 -33 18 0 20 -6 20 -59 0 -64 8 -72 58 -63 18 4 22 11
22 38 0 24 5 34 15 34 9 0 15 9 15 25 0 18 5 25 20 25 17 0 20 7 20 45 0 39 3
45 21 45 16 0 20 5 16 20 -5 18 0 20 44 20 42 0 49 -3 49 -20 0 -11 4 -20 10
-20 5 0 7 -6 4 -14 -5 -14 20 -46 37 -46 5 0 9 14 9 30 0 43 30 41 31 -2 1
-18 1 -39 0 -45 -1 -7 7 -13 19 -13 17 0 20 -6 20 -40 0 -33 3 -40 20 -40 15
0 20 -7 20 -26 0 -15 4 -23 11 -19 6 4 13 -2 16 -14 12 -46 23 -17 23 59 0 70
2 80 18 79 10 0 12 -3 5 -6 -19 -7 -17 -73 2 -73 12 0 15 19 15 115 0 70 4
115 10 115 6 0 10 14 10 31 0 24 4 30 15 25 13 -4 15 10 15 94 0 97 1 100 23
101 12 1 25 1 30 0 4 0 7 8 7 19 0 18 7 20 80 20 62 0 80 -3 80 -14 0 -9 7
-12 20 -9 19 5 20 0 20 -81 l0 -86 -45 0 -45 0 0 -170 c0 -163 -1 -170 -20
-170 -18 0 -20 -7 -20 -82 0 -46 -5 -90 -11 -98 -9 -13 -10 -12 -5 3 3 11 0
17 -10 17 -8 0 -14 -6 -13 -12 5 -44 -2 -68 -21 -68 -17 0 -20 -7 -20 -44 0
-23 -3 -71 -6 -105 l-7 -61 -88 0 c-82 0 -89 2 -89 20 0 14 -7 20 -21 20 -13
0 -20 6 -18 18 5 52 0 60 -41 67 l-40 7 0 65 c0 60 -2 65 -20 60 -17 -4 -20 0
-20 29 0 32 -2 34 -35 34 -31 0 -36 -3 -41 -30 -4 -16 -13 -30 -20 -30 -8 0
-14 -10 -14 -25 0 -15 -5 -24 -12 -22 -8 1 -14 -10 -16 -25 -2 -21 -9 -28 -24
-28 -15 0 -19 -5 -15 -20 4 -15 0 -20 -14 -20 -15 0 -19 -8 -20 -42 -1 -24 -4
-33 -6 -20 -2 12 -11 22 -19 22 -8 0 -13 -4 -10 -9 3 -5 3 -23 0 -40 l-6 -31
-89 0 c-82 0 -89 2 -89 20 0 13 -7 20 -20 20 -19 0 -20 7 -20 111 0 106 -1
111 -20 106 -11 -3 -21 -1 -21 4 -1 5 -3 14 -4 19 -1 6 -3 51 -4 102 -1 87
-13 110 -24 48 -2 -14 -5 24 -6 84 -1 103 -2 108 -21 103 -17 -4 -20 0 -21 26
-1 18 0 43 1 56 1 14 -1 48 -5 78 -5 43 -10 53 -26 53 -16 0 -19 7 -19 55 0
51 2 55 24 55 15 0 26 7 29 20 5 18 14 20 96 20 l91 0 1 -122z m-1800 80 c2
-18 3 -59 1 -90 l-4 -58 -234 0 -234 0 0 -108 0 -108 156 -2 c87 -1 160 -4
163 -8 3 -3 8 -46 9 -95 l4 -89 -166 0 -166 0 0 -95 0 -95 245 0 c238 0 245
-1 245 -20 0 -11 7 -20 15 -20 12 0 15 -15 15 -77 -1 -60 -3 -74 -11 -60 -6
10 -8 25 -5 32 3 8 1 17 -4 20 -6 4 -10 -11 -10 -35 l0 -42 -52 3 c-105 5
-248 -1 -248 -11 0 -5 30 -11 68 -13 37 -2 -45 -3 -183 -3 -137 0 -211 2 -162
3 109 5 116 23 8 23 -95 0 -111 5 -111 35 0 18 -4 22 -20 18 -20 -5 -20 0 -20
451 l0 456 45 0 c25 0 45 5 45 10 0 6 108 10 304 10 l304 0 3 -32z m276 20 c3
8 30 12 84 12 l79 0 0 -95 c0 -78 3 -95 15 -95 12 0 15 17 17 83 1 45 5 -1 8
-103 5 -169 7 -185 23 -182 13 2 17 -4 17 -31 0 -29 4 -36 25 -41 22 -6 25
-12 25 -52 0 -38 3 -45 16 -40 9 3 24 6 35 6 17 0 19 8 19 60 0 53 2 60 20 60
16 0 20 7 20 35 0 28 4 35 20 35 16 0 20 7 20 30 l0 30 65 0 c58 0 65 -2 65
-20 0 -11 4 -20 10 -20 5 0 7 7 4 15 -4 9 0 15 9 15 14 0 31 -42 26 -66 -1 -5
-1 -21 0 -36 1 -31 27 -39 34 -10 3 9 5 -7 6 -35 1 -42 4 -53 17 -53 10 0 14
6 10 15 -3 8 -1 15 4 15 6 0 10 -15 10 -34 0 -31 3 -34 35 -38 33 -4 35 -2 35
24 0 20 4 26 15 22 12 -5 15 4 15 44 0 63 10 113 21 106 5 -3 9 5 10 18 1 57
9 103 19 106 6 2 10 37 10 80 0 96 7 122 31 122 11 0 19 7 19 15 0 12 17 15
90 15 l90 0 0 -90 c0 -57 -4 -90 -11 -90 -6 0 -8 9 -4 23 5 19 5 20 -5 4 -7
-10 -14 -92 -18 -190 -4 -111 -9 -156 -13 -127 -4 29 -7 35 -7 17 -1 -16 -6
-25 -12 -22 -5 3 -11 -4 -11 -17 -1 -13 -3 -30 -4 -38 -1 -8 -3 -32 -4 -52 -1
-29 -5 -38 -18 -38 -14 0 -18 -9 -19 -42 -2 -135 -4 -148 -19 -148 -12 0 -15
-13 -15 -55 0 -42 -3 -55 -15 -55 -9 0 -15 -9 -15 -25 0 -25 0 -25 -95 -25
l-95 0 0 39 c0 34 -3 39 -20 36 -16 -3 -20 2 -20 21 0 13 -7 27 -15 30 -8 4
-15 10 -15 16 0 5 5 6 10 3 6 -3 10 -1 10 4 0 6 -9 11 -19 11 -14 0 -21 8 -23
27 -3 24 -8 27 -38 28 -33 0 -35 2 -38 38 -3 29 -7 37 -23 37 -12 0 -19 -7
-19 -20 0 -11 -7 -20 -15 -20 -8 0 -15 -9 -15 -20 0 -13 -7 -20 -19 -20 -14 0
-18 -5 -14 -21 4 -15 0 -22 -16 -26 -12 -3 -21 -13 -21 -24 0 -15 -7 -19 -35
-19 l-35 0 0 -60 0 -60 -95 0 -95 0 -1 35 c-1 19 -3 40 -4 45 -1 6 -3 26 -4
46 -1 30 -4 34 -15 25 -17 -15 -26 5 -26 60 0 41 -24 56 -33 22 -3 -10 -5 24
-6 75 -1 85 -3 92 -21 92 -18 0 -20 7 -20 73 0 84 -9 147 -21 147 -4 0 -6 -9
-4 -20 2 -11 0 -20 -6 -20 -5 0 -9 53 -9 125 0 117 -1 125 -19 125 -12 0 -21
-8 -24 -22 -2 -13 -5 14 -6 58 l-1 81 25 -5 c19 -3 25 0 25 14 0 16 2 17 11 4
8 -11 12 -12 16 -2z m-1139 -370 c-1 -205 -3 -356 -5 -335 -2 20 -8 37 -14 37
-5 0 -9 14 -9 31 0 17 4 28 10 24 6 -4 10 17 10 54 0 34 -4 61 -10 61 -6 0
-10 35 -9 88 0 58 3 80 9 67 5 -12 9 49 9 157 1 132 -2 178 -11 181 -8 3 -6 6
5 6 16 1 17 -22 15 -371z m2269 346 c-3 -3 -12 -4 -19 -1 -8 3 -5 6 6 6 11 1
17 -2 13 -5z m-6 -47 c-16 -16 -25 -1 -10 16 8 8 16 11 18 5 2 -5 -2 -15 -8
-21z m-1369 -38 c-2 -16 -9 -29 -14 -29 -5 0 -7 16 -4 38 3 20 6 42 6 47 1 6
5 2 9 -9 4 -10 5 -31 3 -47z m-1637 10 c11 -16 1 -19 -13 -3 -7 8 -8 14 -3 14
5 0 13 -5 16 -11z m3015 -20 c0 -5 -6 -9 -13 -9 -8 0 -14 6 -14 14 0 8 6 12
14 9 7 -3 13 -9 13 -14z m-40 -74 c0 -8 -4 -15 -10 -15 -5 0 -7 7 -4 15 4 8 8
15 10 15 2 0 4 -7 4 -15z m-1783 -11 c-3 -3 -12 -4 -19 -1 -8 3 -5 6 6 6 11 1
17 -2 13 -5z m2250 -36 c-3 -8 -6 -5 -6 6 -1 11 2 17 5 13 3 -3 4 -12 1 -19z
m-1317 -55 c0 -26 -1 -26 -14 -8 -14 20 -12 35 5 35 5 0 9 -12 9 -27z m1707
-60 c-3 -10 -5 -2 -5 17 0 19 2 27 5 18 2 -10 2 -26 0 -35z m-1290 -29 c-3 -3
-12 -4 -19 -1 -8 3 -5 6 6 6 11 1 17 -2 13 -5z m-1047 -114 c0 -44 -3 -80 -7
-80 -5 0 -8 36 -8 80 0 44 3 80 8 80 4 0 7 -36 7 -80z m3310 61 c0 -22 26 -36
34 -18 2 7 5 -7 5 -30 1 -27 6 -43 14 -44 6 -1 1 -4 -13 -8 -18 -5 -24 -13
-22 -27 2 -10 8 -20 13 -22 5 -2 9 -12 9 -23 0 -14 7 -19 25 -19 17 0 25 -5
24 -17 0 -11 -3 -13 -6 -5 -7 17 -33 15 -33 -3 0 -15 -29 -10 -41 8 -4 5 -6
-3 -6 -17 0 -33 -11 -45 -22 -27 -6 10 -11 5 -16 -18 -6 -27 -11 -31 -41 -31
-34 0 -49 22 -21 33 6 3 2 6 -10 6 -32 1 -30 31 2 31 15 0 25 6 25 14 0 8 4
18 10 21 5 3 7 0 4 -8 -3 -8 -1 -18 5 -22 7 -4 11 5 11 24 0 21 -5 31 -15 31
-8 0 -15 5 -15 10 0 6 5 10 10 10 6 0 10 11 10 25 0 23 -4 25 -45 25 -38 0
-45 3 -45 20 0 13 7 20 20 20 17 0 20 7 20 40 l0 40 55 0 c47 0 55 -3 55 -19z
m40 9 c0 -5 -7 -7 -15 -4 -8 4 -15 8 -15 10 0 2 7 4 15 4 8 0 15 -4 15 -10z
m-4400 -15 c0 -8 -4 -15 -10 -15 -5 0 -7 7 -4 15 4 8 8 15 10 15 2 0 4 -7 4
-15z m1783 -62 c-7 -2 -19 -2 -25 0 -7 3 -2 5 12 5 14 0 19 -2 13 -5z m-2346
-55 c-3 -7 -5 -2 -5 12 0 14 2 19 5 13 2 -7 2 -19 0 -25z m5000 -5 c-3 -10 -5
-4 -5 12 0 17 2 24 5 18 2 -7 2 -21 0 -30z m-229 -1 c3 -17 0 -20 -13 -16 -13
6 -14 9 -3 15 11 7 10 11 -2 20 -13 9 -13 10 0 6 8 -2 16 -13 18 -25z m199 -4
c-3 -8 -6 -5 -6 6 -1 11 2 17 5 13 3 -3 4 -12 1 -19z m-3387 -28 c0 -5 -8 -10
-17 -10 -15 0 -16 2 -3 10 19 12 20 12 20 0z m3208 -147 c-17 -4 -23 -16 -18
-38 1 -5 -4 -4 -11 2 -25 25 -19 43 14 42 18 -1 24 -3 15 -6z m-3931 -175 c-2
-24 -4 -5 -4 42 0 47 2 66 4 43 2 -24 2 -62 0 -85z m1516 45 c-7 -2 -13 -17
-14 -31 l-1 -27 -7 25 c-9 30 -5 40 17 39 11 0 12 -3 5 -6z m417 -116 c21 -4
20 -4 -7 -6 -25 -1 -33 3 -33 17 0 11 3 13 8 6 4 -7 18 -14 32 -17z m-1062 -4
c-10 -2 -26 -2 -35 0 -10 3 -2 5 17 5 19 0 27 -2 18 -5z m1885 0 c-13 -2 -35
-2 -50 0 -16 2 -5 4 22 4 28 0 40 -2 28 -4z m-4293 -232 c0 -14 5 -18 20 -14
20 5 20 0 20 -356 l0 -361 40 0 c29 0 40 -4 40 -15 0 -11 12 -15 45 -15 33 0
45 4 45 15 0 10 10 15 30 15 23 0 30 4 30 20 0 11 7 20 15 20 17 0 17 16 15
443 -1 233 -1 237 19 237 12 0 21 7 21 15 0 13 14 15 88 13 l87 -3 3 -392 c2
-388 2 -393 -18 -393 -17 0 -20 -7 -20 -40 0 -36 -2 -40 -25 -40 -22 0 -25 -4
-25 -40 0 -38 -2 -40 -30 -40 -16 0 -30 -4 -30 -10 0 -5 7 -7 15 -4 8 4 15 2
15 -3 0 -10 -160 -23 -287 -23 -69 0 -73 1 -73 23 0 18 -2 19 -10 7 -6 -10
-10 -11 -10 -3 0 7 -3 12 -7 11 -5 -1 -29 1 -55 6 -44 7 -48 10 -54 42 -7 37
-20 45 -27 17 -4 -14 -5 -12 -6 5 -1 15 -7 22 -21 22 -17 0 -20 7 -20 40 0 36
-2 40 -25 40 l-25 0 0 375 c0 370 0 375 20 375 11 0 23 7 26 15 5 12 25 15 90
15 76 0 84 -2 84 -19z m867 -11 c4 -21 11 -30 24 -30 14 0 19 -7 19 -30 0 -23
5 -30 19 -30 14 0 18 -5 14 -20 -4 -15 0 -20 16 -20 14 0 21 -6 21 -20 0 -13
7 -20 20 -20 19 0 25 -17 23 -67 -1 -8 12 -13 33 -13 32 0 34 -2 34 -35 0 -28
4 -35 20 -35 14 0 20 -7 20 -21 0 -12 8 -23 20 -26 16 -4 20 -14 20 -44 0 -35
3 -39 25 -39 14 0 25 5 25 11 0 6 -9 9 -19 6 -19 -5 -20 2 -19 214 1 207 2
219 19 219 11 0 19 7 19 15 0 12 17 15 95 15 97 0 103 -2 96 -42 0 -5 3 -8 9
-8 12 0 14 -33 3 -44 -10 -10 -10 18 -11 -463 l-2 -433 -79 0 c-88 0 -111 5
-111 26 0 8 -9 14 -20 14 -12 0 -20 7 -20 18 0 14 2 15 10 2 9 -13 11 -13 20
0 7 11 5 16 -10 18 -16 3 -20 11 -20 43 0 28 -4 39 -15 39 -8 0 -15 9 -15 20
0 15 -7 20 -25 20 -22 0 -25 4 -25 40 0 33 -3 40 -20 40 -16 0 -20 7 -20 31 0
26 -3 31 -20 26 -19 -5 -25 4 -20 28 1 5 -1 24 -5 42 -4 24 -11 33 -25 33 -12
0 -20 -7 -20 -17 0 -9 -3 -13 -7 -10 -3 4 -6 20 -5 36 0 23 -4 30 -24 34 l-24
4 0 -112 c0 -110 -1 -113 -21 -108 -21 6 -21 4 -17 -106 4 -104 3 -111 -14
-111 -14 0 -18 -6 -16 -23 3 -21 0 -22 -84 -24 l-88 -2 0 475 c0 415 2 474 15
474 8 0 15 9 15 20 0 18 7 20 80 20 l81 0 6 -30z m919 13 c1 -7 2 -20 3 -28 0
-8 8 -15 16 -15 12 0 15 -16 15 -81 0 -50 -4 -78 -10 -74 -6 4 -8 34 -4 76 4
46 2 69 -5 69 -8 0 -11 -131 -11 -440 0 -433 0 -440 -20 -440 -13 0 -20 -7
-20 -20 0 -18 -7 -20 -72 -20 -40 0 -83 3 -95 6 l-23 6 0 474 c0 467 0 474 20
474 11 0 20 7 20 15 0 13 15 15 93 13 64 -2 92 -7 93 -15z m353 0 c6 -10 11
-12 11 -5 0 26 20 10 20 -17 0 -16 3 -37 6 -45 6 -15 8 -15 20 1 12 16 14 8
15 -59 2 -104 2 -103 19 -103 17 0 28 -50 29 -127 1 -28 6 -48 12 -48 6 0 9 9
6 20 -3 11 -1 20 4 20 5 0 9 -15 9 -32 0 -61 13 -138 22 -138 6 0 8 16 6 35
-2 19 0 35 4 35 7 0 14 -130 9 -167 -1 -8 9 -13 24 -13 15 0 25 -6 25 -14 0
-7 9 -16 20 -19 23 -6 23 14 0 25 -11 5 -9 7 7 7 14 1 23 9 26 24 4 22 4 22
15 -3 9 -21 11 -9 11 68 1 58 5 92 12 92 6 0 8 -9 4 -20 -4 -11 -2 -20 4 -20
6 0 12 15 13 33 2 51 13 86 31 99 6 3 13 48 17 100 4 51 8 85 8 76 1 -10 9
-18 17 -18 12 0 15 16 16 78 1 42 3 69 6 60 6 -25 33 -10 33 18 0 16 -6 24
-17 25 -10 1 -3 6 15 11 17 6 32 15 32 21 0 5 -7 7 -15 3 -8 -3 -15 -1 -15 4
0 6 40 10 95 10 88 0 95 -1 95 -20 0 -11 7 -20 15 -20 11 0 15 -12 15 -45 0
-33 -4 -45 -15 -45 -12 0 -15 -15 -16 -72 0 -40 -3 -67 -6 -60 -5 13 -34 17
-32 5 1 -5 1 -27 0 -50 -1 -36 -4 -43 -21 -43 -13 0 -19 -6 -18 -17 3 -42 -3
-103 -10 -103 -5 0 -7 18 -5 40 2 22 -2 40 -7 40 -6 0 -10 -26 -11 -57 -1 -75
-15 -171 -19 -128 -1 17 -2 36 -1 43 1 6 -2 12 -7 12 -8 0 -20 -98 -23 -194
-1 -23 -4 -31 -6 -18 -5 26 -35 30 -32 4 3 -33 -4 -98 -8 -74 -2 12 -9 20 -14
17 -5 -4 -9 1 -9 10 0 9 5 13 10 10 6 -3 10 -1 10 4 0 6 -7 11 -15 11 -12 0
-15 -16 -15 -80 0 -70 -2 -80 -17 -79 -11 0 -13 3 -5 6 17 7 15 33 -3 33 -12
0 -15 -13 -15 -55 l0 -55 -120 0 c-113 0 -120 1 -120 20 0 13 -7 20 -20 20
-17 0 -20 7 -21 53 -1 28 -4 42 -6 30 -6 -30 -23 -30 -23 0 0 42 -12 67 -31
67 -15 0 -19 7 -19 40 0 33 -3 40 -20 40 -18 0 -20 7 -20 65 0 58 -2 65 -20
65 -18 0 -20 7 -20 75 0 68 -2 75 -20 75 -17 0 -20 7 -20 40 0 29 -4 40 -15
40 -12 0 -15 13 -15 55 0 46 -3 55 -18 55 -12 0 -18 8 -19 23 -1 69 -4 87 -12
87 -5 0 -12 -8 -14 -17 -3 -10 -5 12 -6 50 -1 53 2 67 14 67 8 0 15 7 15 15 0
24 145 22 159 -2z m1481 -63 c0 -78 -1 -80 -24 -80 -19 0 -23 -4 -19 -20 5
-19 0 -20 -166 -20 -142 0 -171 -2 -171 -14 0 -10 14 -16 43 -19 36 -3 34 -4
-15 -5 l-58 -2 0 -80 0 -80 135 0 135 0 1 -47 c1 -58 -2 -127 -6 -131 -1 -1
-55 -3 -119 -3 -64 0 -123 -2 -131 -5 -12 -5 -15 -28 -17 -103 l-2 -96 -3 83
c-2 45 -8 82 -12 82 -14 0 -19 -33 -17 -107 l1 -68 220 -3 c120 -2 220 -4 222
-6 5 -4 7 -165 2 -170 -6 -5 -133 -15 -206 -16 -99 0 -73 -17 29 -19 51 -1 94
-4 97 -6 2 -3 -97 -4 -220 -4 -123 1 -214 4 -201 6 12 2 22 11 22 19 0 10 -13
14 -46 14 -27 0 -43 -4 -39 -10 3 -5 -3 -10 -14 -10 -12 0 -21 5 -21 10 0 6
-13 10 -30 10 l-30 0 0 474 c0 445 1 474 18 472 10 0 16 6 16 17 -2 16 19 17
312 17 l314 0 0 -80z m670 65 c0 -10 10 -15 30 -15 17 0 30 -4 30 -10 0 -5 16
-10 35 -10 33 0 35 -2 35 -35 0 -33 2 -35 35 -35 l35 0 2 -57 c4 -138 6 -162
14 -179 6 -14 10 1 14 51 l6 70 2 -77 c2 -72 0 -78 -18 -78 -13 0 -20 -7 -20
-20 0 -11 -7 -20 -16 -20 -9 0 -14 -8 -13 -17 4 -40 -2 -53 -21 -53 -14 0 -20
-7 -20 -24 0 -17 -7 -26 -25 -30 -14 -4 -30 -4 -35 -1 -6 4 -10 -9 -10 -29 0
-29 -4 -36 -19 -36 -13 0 -18 -6 -16 -17 2 -10 4 -21 4 -25 1 -5 8 -8 16 -8 8
0 15 -7 15 -15 0 -14 12 -19 33 -16 4 0 7 -10 7 -24 0 -16 6 -25 15 -25 11 0
15 -11 15 -40 0 -34 3 -40 21 -40 13 0 20 -6 18 -17 -3 -36 1 -63 11 -63 6 0
11 10 11 23 l2 22 4 -22 c3 -15 12 -23 24 -23 13 0 19 -7 18 -22 0 -22 -1 -22
-9 -3 -7 17 -9 17 -9 3 -1 -10 -5 -18 -11 -18 -5 0 -10 -7 -10 -15 0 -12 -18
-15 -100 -15 -82 0 -100 3 -100 15 0 8 -9 15 -20 15 -13 0 -20 7 -20 20 0 11
-7 20 -15 20 -11 0 -15 11 -15 40 0 33 -4 40 -19 40 -15 0 -20 10 -25 47 -8
71 -9 73 -17 73 -4 0 -10 -8 -12 -17 -3 -10 -5 1 -6 25 l-1 42 -47 1 c-27 1
-38 4 -25 6 32 6 27 20 -10 25 -70 11 -68 15 -68 -178 l0 -174 -115 0 -115 0
0 470 c0 463 0 470 20 470 13 0 20 7 20 20 0 19 7 20 245 20 211 0 245 -2 245
-15z m980 -5 c0 -17 7 -20 48 -21 26 -1 39 -3 30 -6 -22 -5 -24 -33 -3 -33 10
0 16 -16 21 -50 4 -32 11 -50 20 -50 9 0 14 -12 14 -35 0 -27 -3 -33 -16 -28
-10 4 -17 -1 -21 -16 -6 -23 -20 -26 -130 -22 -28 1 -34 4 -23 11 12 8 12 10
-3 16 -9 3 -23 4 -31 1 -10 -4 -16 2 -18 21 l-3 27 -97 2 c-76 1 -98 -2 -98
-12 0 -8 12 -16 28 -18 15 -2 -2 -4 -38 -4 -53 0 -58 1 -30 7 30 6 31 8 8 9
-14 0 -34 4 -44 8 -13 5 -16 3 -11 -10 3 -9 2 -17 -3 -17 -6 0 -10 -24 -10
-53 l0 -52 48 -12 c26 -6 61 -9 77 -6 23 5 27 3 22 -10 -11 -30 19 -46 78 -42
53 4 55 3 55 -21 0 -23 2 -24 70 -24 39 0 69 -3 69 -7 -4 -23 3 -33 22 -33 12
0 23 -8 26 -20 3 -11 12 -20 20 -20 8 0 17 -9 20 -19 3 -11 12 -21 22 -23 17
-4 17 -3 19 -100 2 -66 16 -92 25 -45 4 19 4 18 6 -5 1 -18 -4 -28 -13 -28
-11 0 -17 -19 -22 -70 -3 -38 -11 -70 -16 -70 -5 0 -7 4 -4 8 3 5 1 22 -4 38
-8 27 -8 27 -9 -13 -1 -36 -4 -43 -21 -43 -11 0 -20 -7 -20 -15 0 -18 26 -20
33 -2 3 7 6 5 6 -5 1 -16 -9 -18 -69 -18 -56 0 -70 -3 -70 -15 0 -11 -13 -15
-47 -17 -27 -1 -57 -2 -67 -2 -11 -1 -22 -8 -24 -15 -3 -9 0 -12 10 -9 8 4 30
3 49 -2 21 -5 -36 -8 -146 -7 -113 1 -139 2 -70 4 60 2 114 8 119 13 13 13 -2
14 -206 18 l-88 2 -1 28 c0 15 -3 22 -5 15 -8 -18 -34 -4 -34 18 0 21 -20 27
-21 7 0 -7 -6 -2 -12 12 -15 31 -38 51 -54 45 -9 -3 -13 7 -13 30 0 24 5 35
14 35 8 0 18 9 21 20 6 17 15 20 76 20 59 0 69 3 70 18 1 16 2 16 6 0 3 -12
14 -18 34 -18 22 0 29 -5 29 -20 0 -19 7 -20 145 -20 90 0 145 4 145 10 0 6 8
10 18 10 13 0 14 -2 4 -9 -11 -7 -11 -9 2 -14 14 -5 16 4 16 63 0 68 -1 70
-25 70 -16 0 -25 6 -25 15 0 8 -4 15 -10 15 -5 0 -10 -7 -10 -15 0 -8 -5 -15
-11 -15 -5 0 -7 5 -3 11 10 17 -16 29 -63 29 -30 0 -43 4 -43 14 0 15 -30 26
-72 26 -16 0 -28 6 -28 13 0 8 -4 7 -10 -3 -9 -13 -11 -13 -20 0 -6 10 -10 11
-10 3 0 -21 -17 -15 -23 8 -3 13 -10 18 -17 14 -19 -12 -59 16 -65 46 -4 15
-14 29 -23 31 -9 2 -17 10 -18 18 -1 8 -2 25 -2 38 -2 18 -8 22 -37 22 l-35 0
0 105 c0 98 1 105 20 105 11 0 20 4 20 10 0 5 7 7 15 4 11 -5 15 1 15 20 0 19
5 26 19 26 16 0 21 9 26 43 4 24 12 44 18 45 45 4 57 8 57 19 0 10 46 13 215
13 208 0 215 -1 215 -20z m1019 -80 c2 -98 2 -100 -21 -100 -13 -1 -123 0
-245 0 l-223 1 0 -94 0 -94 31 -7 c17 -3 91 -6 164 -6 153 0 145 7 145 -112 0
-58 -3 -68 -17 -70 -10 -1 -25 -2 -33 -4 -8 -1 -21 -2 -27 -3 -7 -1 -13 -6
-13 -12 0 -7 12 -10 30 -7 17 3 30 1 30 -4 0 -4 -68 -8 -152 -8 -83 0 -148 3
-144 7 4 4 57 6 117 4 61 -1 109 1 109 6 0 5 -12 10 -27 10 -16 0 -46 1 -68 3
-22 1 -44 1 -50 0 -5 -1 -29 -1 -52 0 l-43 2 0 -101 0 -101 245 0 245 0 0 -94
0 -95 -37 -3 c-53 -4 -54 -26 -1 -31 24 -2 -109 -4 -294 -5 -316 -2 -338 -1
-336 16 4 48 -15 74 -25 34 -3 -9 -5 198 -6 461 -1 471 -1 477 19 477 11 0 20
7 20 15 0 13 43 15 329 15 l329 0 1 -100z m-5739 -47 c0 -64 -3 -114 -6 -111
-3 4 -5 52 -5 107 0 126 0 121 6 121 3 0 5 -53 5 -117z m5770 32 c0 -47 -3
-85 -7 -85 -5 0 -8 38 -8 85 0 47 3 85 7 85 5 0 8 -38 8 -85z m-2663 -12 c-2
-16 -4 -3 -4 27 0 30 2 43 4 28 2 -16 2 -40 0 -55z m800 25 c-3 -8 -6 -5 -6 6
-1 11 2 17 5 13 3 -3 4 -12 1 -19z m940 -25 c-3 -10 -5 -4 -5 12 0 17 2 24 5
18 2 -7 2 -21 0 -30z m-1884 -110 c-35 -2 -91 -2 -125 0 -35 2 -7 3 62 3 69 0
97 -1 63 -3z m1620 0 c-7 -2 -19 -2 -25 0 -7 3 -2 5 12 5 14 0 19 -2 13 -5z
m1060 0 c-56 -2 -151 -2 -210 0 -59 1 -13 3 102 3 116 0 164 -2 108 -3z m-838
-78 c6 -2 -11 -4 -37 -4 -27 -1 -48 3 -48 7 0 7 62 5 85 -3z m-178 -101 c-3
-3 -12 -4 -19 -1 -8 3 -5 6 6 6 11 1 17 -2 13 -5z m-3102 -46 c6 -4 2 -8 -7
-8 -10 0 -18 7 -18 17 0 9 3 12 8 7 4 -5 12 -12 17 -16z m1442 -35 c-3 -10 -5
-2 -5 17 0 19 2 27 5 18 2 -10 2 -26 0 -35z m-2090 5 c-3 -8 -6 -5 -6 6 -1 11
2 17 5 13 3 -3 4 -12 1 -19z m1300 -20 c-3 -7 -5 -2 -5 12 0 14 2 19 5 13 2
-7 2 -19 0 -25z m-908 -65 c-2 -46 -2 -47 -8 -13 -4 19 -5 41 -3 48 8 24 12
11 11 -35z m1498 -39 c-3 -3 -12 -4 -19 -1 -8 3 -5 6 6 6 11 1 17 -2 13 -5z
m86 -1 c-13 -2 -35 -2 -50 0 -16 2 -5 4 22 4 28 0 40 -2 28 -4z m1554 1 c-3
-3 -12 -4 -19 -1 -8 3 -5 6 6 6 11 1 17 -2 13 -5z m-2577 -18 c0 -11 -19 -15
-25 -6 -3 5 1 10 9 10 9 0 16 -2 16 -4z m-560 -71 c0 -25 -4 -45 -8 -45 -4 0
-8 20 -9 45 -1 25 3 45 8 45 5 0 9 -20 9 -45z m-1270 -50 c0 -14 -4 -25 -9
-25 -4 0 -6 11 -3 25 2 14 6 25 8 25 2 0 4 -11 4 -25z m357 -22 c-3 -10 -5 -4
-5 12 0 17 2 24 5 18 2 -7 2 -21 0 -30z m913 2 c0 -8 -4 -15 -10 -15 -5 0 -7
7 -4 15 4 8 8 15 10 15 2 0 4 -7 4 -15z m-913 -132 c-2 -21 -4 -4 -4 37 0 41
2 58 4 38 2 -21 2 -55 0 -75z m5410 10 c-2 -16 -4 -3 -4 27 0 30 2 43 4 28 2
-16 2 -40 0 -55z m-5152 47 c3 -5 1 -10 -4 -10 -6 0 -11 5 -11 10 0 6 2 10 4
10 3 0 8 -4 11 -10z m2855 -60 c0 -38 -3 -70 -7 -70 -5 0 -7 31 -5 70 2 38 6
70 8 70 2 0 4 -31 4 -70z m2297 -62 c-3 -7 -5 -2 -5 12 0 14 2 19 5 13 2 -7 2
-19 0 -25z m-6307 -4 c0 -2 -14 -4 -31 -4 -16 0 -28 4 -25 9 5 8 56 3 56 -5z
m107 -40 c-3 -3 -12 -4 -19 -1 -8 3 -5 6 6 6 11 1 17 -2 13 -5z m81 -1 c-10
-2 -26 -2 -35 0 -10 3 -2 5 17 5 19 0 27 -2 18 -5z m2165 0 c-7 -2 -19 -2 -25
0 -7 3 -2 5 12 5 14 0 19 -2 13 -5z m710 0 c-13 -2 -35 -2 -50 0 -16 2 -5 4
22 4 28 0 40 -2 28 -4z m870 0 c-24 -2 -62 -2 -85 0 -24 2 -5 4 42 4 47 0 66
-2 43 -4z"/>
<path d="M2931 5813 c-1 -18 4 -33 9 -33 12 0 12 17 0 45 -7 17 -9 15 -9 -12z"/>
<path d="M2500 5792 c0 -5 7 -9 15 -9 8 0 15 4 15 9 0 4 -7 8 -15 8 -8 0 -15
-4 -15 -8z"/>
<path d="M2890 5740 c0 -5 5 -10 10 -10 6 0 10 5 10 10 0 6 -4 10 -10 10 -5 0
-10 -4 -10 -10z"/>
<path d="M2748 5623 c14 -3 20 -9 15 -16 -4 -7 1 -6 10 2 24 19 22 21 -15 20
-24 -1 -27 -3 -10 -6z"/>
<path d="M2550 5540 c0 -5 5 -10 10 -10 6 0 10 5 10 10 0 6 -4 10 -10 10 -5 0
-10 -4 -10 -10z"/>
<path d="M3730 5650 c0 -43 3 -50 20 -50 17 0 20 7 20 50 0 43 -3 50 -20 50
-17 0 -20 -7 -20 -50z"/>
<path d="M3958 5640 c3 -30 8 -40 22 -40 14 0 19 10 22 40 3 37 2 40 -22 40
-24 0 -25 -3 -22 -40z"/>
<path d="M3837 5579 c4 -16 8 -17 14 -7 7 10 9 9 9 -5 0 -13 -7 -17 -32 -15
-29 3 -33 0 -36 -24 -3 -28 -3 -28 62 -28 77 0 96 6 96 31 0 14 -7 19 -25 19
-20 0 -25 5 -25 25 0 22 -4 25 -34 25 -30 0 -33 -3 -29 -21z"/>
<path d="M4008 5473 c7 -3 16 -2 19 1 4 3 -2 6 -13 5 -11 0 -14 -3 -6 -6z"/>
<path d="M3628 5393 c7 -3 16 -2 19 1 4 3 -2 6 -13 5 -11 0 -14 -3 -6 -6z"/>
<path d="M3781 5174 c0 -11 3 -14 6 -6 3 7 2 16 -1 19 -3 4 -6 -2 -5 -13z"/>
<path d="M3420 5130 c0 -11 4 -20 9 -20 6 0 9 9 8 20 -1 11 -5 20 -9 20 -4 0
-8 -9 -8 -20z"/>
<path d="M3372 5025 c0 -16 2 -22 5 -12 2 9 2 23 0 30 -3 6 -5 -1 -5 -18z"/>
<path d="M4830 5725 c0 -8 5 -15 10 -15 6 0 10 7 10 15 0 8 -4 15 -10 15 -5 0
-10 -7 -10 -15z"/>
<path d="M1991 5504 c0 -11 3 -14 6 -6 3 7 2 16 -1 19 -3 4 -6 -2 -5 -13z"/>
<path d="M5930 5365 c0 -28 4 -35 20 -35 20 0 26 22 14 54 -12 30 -34 18 -34
-19z"/>
<path d="M6130 5353 c0 -25 2 -44 4 -42 9 9 13 89 5 89 -5 0 -9 -21 -9 -47z"/>
<path d="M6050 5359 c0 -38 24 -35 28 4 2 19 -1 27 -12 27 -11 0 -16 -10 -16
-31z"/>
<path d="M5810 5349 c0 -27 2 -29 15 -15 8 8 15 22 15 30 0 9 -7 16 -15 16
-10 0 -15 -10 -15 -31z"/>
<path d="M5470 5345 c0 -8 7 -15 15 -15 9 0 12 6 9 15 -4 8 -10 15 -15 15 -5
0 -9 -7 -9 -15z"/>
<path d="M5970 5280 c0 -17 7 -20 40 -20 33 0 40 3 40 20 0 17 -7 20 -40 20
-33 0 -40 -3 -40 -20z"/>
<path d="M5850 5279 c11 -8 12 -12 3 -16 -15 -5 -18 -43 -4 -43 5 0 12 -8 14
-17 3 -13 5 -10 6 7 1 19 4 21 13 12 18 -18 38 -14 38 8 0 13 -7 20 -20 20
-13 0 -20 7 -20 20 0 14 -7 20 -22 20 -19 0 -20 -2 -8 -11z"/>
<path d="M5560 5249 c0 -5 5 -7 10 -4 6 3 10 8 10 11 0 2 -4 4 -10 4 -5 0 -10
-5 -10 -11z"/>
<path d="M1070 5102 c0 -12 15 -27 28 -29 21 -5 13 24 -8 30 -11 3 -20 2 -20
-1z"/>
<path d="M4071 5284 c0 -11 3 -14 6 -6 3 7 2 16 -1 19 -3 4 -6 -2 -5 -13z"/>
<path d="M4460 5075 c0 -28 4 -35 20 -35 16 0 20 7 20 35 0 28 -4 35 -20 35
-16 0 -20 -7 -20 -35z"/>
<path d="M4580 5076 c0 -13 7 -26 15 -30 11 -4 15 2 15 24 0 20 -5 30 -15 30
-9 0 -15 -9 -15 -24z"/>
<path d="M4490 5000 c0 -17 7 -20 45 -20 38 0 45 3 45 20 0 17 -7 20 -45 20
-38 0 -45 -3 -45 -20z"/>
<path d="M4592 4934 c-11 -12 -8 -14 20 -13 18 0 26 3 18 6 -8 3 -17 9 -20 13
-3 4 -11 2 -18 -6z"/>
<path d="M5082 4883 c-6 -3 -10 -9 -6 -14 3 -5 -9 -9 -25 -9 -17 0 -31 -4 -31
-10 0 -5 20 -10 45 -10 29 0 45 4 45 13 0 19 -14 34 -28 30z"/>
<path d="M4711 4804 c0 -11 3 -14 6 -6 3 7 2 16 -1 19 -3 4 -6 -2 -5 -13z"/>
<path d="M2358 5123 c7 -3 16 -2 19 1 4 3 -2 6 -13 5 -11 0 -14 -3 -6 -6z"/>
<path d="M2730 5090 c0 -5 5 -10 10 -10 6 0 10 5 10 10 0 6 -4 10 -10 10 -5 0
-10 -4 -10 -10z"/>
<path d="M2280 4960 c0 -11 7 -20 15 -20 8 0 15 9 15 20 0 11 -7 20 -15 20 -8
0 -15 -9 -15 -20z"/>
<path d="M2240 4916 c0 -9 7 -16 16 -16 9 0 14 5 12 12 -6 18 -28 21 -28 4z"/>
<path d="M608 4803 c7 -3 16 -2 19 1 4 3 -2 6 -13 5 -11 0 -14 -3 -6 -6z"/>
<path d="M670 4761 c0 -11 -6 -22 -12 -24 -8 -3 -6 -6 5 -6 12 -1 17 7 17 24
0 14 -2 25 -5 25 -3 0 -5 -9 -5 -19z"/>
<path d="M4070 4710 c0 -5 7 -7 15 -4 8 4 15 8 15 10 0 2 -7 4 -15 4 -8 0 -15
-4 -15 -10z"/>
<path d="M5540 4794 c0 -15 26 -19 34 -5 3 5 -3 11 -14 14 -13 3 -20 0 -20 -9z"/>
<path d="M3031 4618 c-1 -19 4 -28 14 -28 8 0 15 9 15 21 0 11 -4 18 -9 15 -5
-4 -12 0 -14 6 -3 7 -6 1 -6 -14z"/>
<path d="M3301 4554 c0 -11 3 -14 6 -6 3 7 2 16 -1 19 -3 4 -6 -2 -5 -13z"/>
<path d="M3341 4494 c0 -11 3 -14 6 -6 3 7 2 16 -1 19 -3 4 -6 -2 -5 -13z"/>
<path d="M2930 4441 c0 -6 5 -13 10 -16 6 -3 10 1 10 9 0 9 -4 16 -10 16 -5 0
-10 -4 -10 -9z"/>
<path d="M1641 4744 c0 -11 3 -14 6 -6 3 7 2 16 -1 19 -3 4 -6 -2 -5 -13z"/>
<path d="M1805 4720 c3 -5 10 -10 16 -10 5 0 9 5 9 10 0 6 -7 10 -16 10 -8 0
-12 -4 -9 -10z"/>
<path d="M1878 4653 c-23 -4 -28 -9 -28 -34 0 -26 3 -29 30 -29 28 0 30 3 30
35 0 19 -1 34 -2 34 -2 -1 -15 -4 -30 -6z"/>
<path d="M1730 4605 c0 -28 4 -35 20 -35 16 0 20 7 20 35 0 28 -4 35 -20 35
-16 0 -20 -7 -20 -35z"/>
<path d="M1933 4565 c0 -8 4 -15 9 -15 4 0 8 7 8 15 0 8 -4 15 -8 15 -5 0 -9
-7 -9 -15z"/>
<path d="M1788 4543 c-10 -2 -18 -13 -18 -24 0 -18 6 -20 58 -17 49 3 57 6 57
23 0 16 -7 20 -40 22 -22 0 -48 -1 -57 -4z"/>
<path d="M1910 4491 c0 -12 5 -21 10 -21 6 0 10 6 10 14 0 8 -4 18 -10 21 -5
3 -10 -3 -10 -14z"/>
<path d="M6318 4743 c7 -3 16 -2 19 1 4 3 -2 6 -13 5 -11 0 -14 -3 -6 -6z"/>
<path d="M6337 4634 c-4 -4 -7 -18 -7 -31 0 -17 6 -23 21 -23 16 0 20 5 17 27
-3 26 -18 39 -31 27z"/>
<path d="M6190 4606 c0 -15 6 -26 13 -26 17 0 15 42 -1 48 -7 2 -12 -7 -12
-22z"/>
<path d="M6160 4561 c0 -6 5 -13 10 -16 6 -3 10 1 10 9 0 9 -4 16 -10 16 -5 0
-10 -4 -10 -9z"/>
<path d="M6295 4560 c-3 -5 -1 -10 4 -10 6 0 11 5 11 10 0 6 -2 10 -4 10 -3 0
-8 -4 -11 -10z"/>
<path d="M6275 4480 c-3 -5 -1 -10 4 -10 6 0 11 5 11 10 0 6 -2 10 -4 10 -3 0
-8 -4 -11 -10z"/>
<path d="M1030 4425 c0 -24 5 -35 15 -35 10 0 15 11 15 35 0 24 -5 35 -15 35
-10 0 -15 -11 -15 -35z"/>
<path d="M1120 4435 c0 -18 5 -25 20 -25 15 0 20 7 20 25 0 18 -5 25 -20 25
-15 0 -20 -7 -20 -25z"/>
<path d="M1140 4361 c0 -5 8 -15 18 -22 16 -13 16 -13 2 5 -14 18 -13 19 3 13
9 -3 17 -2 17 3 0 6 -9 10 -20 10 -11 0 -20 -4 -20 -9z"/>
<path d="M1045 4310 c-4 -6 3 -10 14 -10 25 0 27 6 6 13 -8 4 -17 2 -20 -3z"/>
<path d="M1000 4259 c0 -5 5 -7 10 -4 6 3 10 8 10 11 0 2 -4 4 -10 4 -5 0 -10
-5 -10 -11z"/>
<path d="M860 4095 c0 -8 2 -15 4 -15 2 0 6 7 10 15 3 8 1 15 -4 15 -6 0 -10
-7 -10 -15z"/>
<path d="M970 4089 c0 -11 4 -18 10 -14 5 3 7 12 3 20 -7 21 -13 19 -13 -6z"/>
<path d="M5101 4544 c0 -11 3 -14 6 -6 3 7 2 16 -1 19 -3 4 -6 -2 -5 -13z"/>
<path d="M5010 4535 c0 -8 -4 -15 -10 -15 -5 0 -10 -11 -10 -25 0 -16 6 -25
15 -25 11 0 15 11 15 40 0 22 -2 40 -5 40 -3 0 -5 -7 -5 -15z"/>
<path d="M4532 4198 c2 -22 9 -34 21 -36 14 -3 17 4 17 32 0 30 -4 36 -21 36
-17 0 -20 -5 -17 -32z"/>
<path d="M4680 4195 c0 -28 4 -35 20 -35 16 0 20 7 20 35 0 28 -4 35 -20 35
-16 0 -20 -7 -20 -35z"/>
<path d="M4812 4200 c0 -14 2 -19 5 -12 2 6 2 18 0 25 -3 6 -5 1 -5 -13z"/>
<path d="M4580 4110 c0 -17 7 -20 45 -20 53 0 63 24 14 34 -50 10 -59 7 -59
-14z"/>
<path d="M4574 4029 c-3 -6 -2 -15 4 -21 13 -13 32 -2 32 18 0 16 -26 19 -36
3z"/>
<path d="M2505 4451 c-18 -7 -17 -8 6 -13 17 -3 26 0 26 9 0 15 -3 15 -32 4z"/>
<path d="M3770 4165 c0 -28 4 -35 20 -35 15 0 20 7 20 29 0 17 -6 31 -16 35
-24 9 -24 9 -24 -29z"/>
<path d="M3900 4150 c0 -20 5 -30 15 -30 10 0 15 10 15 30 0 20 -5 30 -15 30
-10 0 -15 -10 -15 -30z"/>
<path d="M3810 4070 c0 -17 7 -20 40 -20 33 0 40 3 40 20 0 17 -7 20 -40 20
-33 0 -40 -3 -40 -20z"/>
<path d="M3783 4000 c5 -31 17 -36 17 -7 0 15 -4 27 -10 27 -5 0 -9 -9 -7 -20z"/>
<path d="M3730 3785 c0 -16 6 -25 15 -25 9 0 15 9 15 25 0 16 -6 25 -15 25 -9
0 -15 -9 -15 -25z"/>
<path d="M3811 3793 c10 -2 19 -13 22 -24 7 -28 27 -24 27 6 0 22 -4 25 -32
24 -18 -1 -26 -3 -17 -6z"/>
<path d="M3833 3733 c4 -3 2 -12 -4 -20 -9 -10 -8 -13 4 -13 8 0 18 -6 20 -12
3 -7 6 2 6 20 1 23 -3 32 -16 32 -9 0 -13 -3 -10 -7z"/>
<path d="M3815 3570 c3 -5 8 -10 11 -10 2 0 4 5 4 10 0 6 -5 10 -11 10 -5 0
-7 -4 -4 -10z"/>
<path d="M6871 4284 c0 -11 3 -14 6 -6 3 7 2 16 -1 19 -3 4 -6 -2 -5 -13z"/>
<path d="M6808 4253 c6 -2 18 -2 25 0 6 3 1 5 -13 5 -14 0 -19 -2 -12 -5z"/>
<path d="M6600 4230 c0 -5 5 -10 10 -10 6 0 10 5 10 10 0 6 -4 10 -10 10 -5 0
-10 -4 -10 -10z"/>
<path d="M6600 4200 c0 -5 5 -10 11 -10 5 0 7 5 4 10 -3 6 -8 10 -11 10 -2 0
-4 -4 -4 -10z"/>
<path d="M6760 4094 c0 -28 3 -35 18 -32 11 2 18 14 20 36 3 27 0 32 -17 32
-17 0 -21 -6 -21 -36z"/>
<path d="M6630 4080 c0 -29 4 -40 15 -40 20 0 29 23 21 55 -11 42 -36 31 -36
-15z"/>
<path d="M6713 4023 c-25 -3 -33 -9 -33 -25 0 -16 5 -19 23 -14 12 3 30 6 40
6 10 0 17 8 17 20 0 11 -3 19 -7 18 -5 0 -23 -3 -40 -5z"/>
<path d="M6720 3950 c0 -5 5 -10 10 -10 6 0 10 5 10 10 0 6 -4 10 -10 10 -5 0
-10 -4 -10 -10z"/>
<path d="M6761 3934 c0 -11 3 -14 6 -6 3 7 2 16 -1 19 -3 4 -6 -2 -5 -13z"/>
<path d="M6932 3850 c0 -14 2 -19 5 -12 2 6 2 18 0 25 -3 6 -5 1 -5 -13z"/>
<path d="M6586 3805 c-11 -8 -16 -18 -11 -22 4 -5 10 -2 12 5 3 6 17 12 31 12
21 0 24 2 12 10 -19 12 -21 12 -44 -5z"/>
<path d="M2606 4038 c-7 -21 -3 -48 6 -48 4 0 8 14 8 30 0 31 -8 40 -14 18z"/>
<path d="M2737 4043 c-4 -3 -7 -19 -7 -35 0 -20 5 -28 18 -28 15 0 17 6 14 35
-4 34 -11 42 -25 28z"/>
<path d="M2840 4020 c0 -23 4 -30 20 -30 16 0 20 7 20 30 0 23 -4 30 -20 30
-16 0 -20 -7 -20 -30z"/>
<path d="M2770 3940 c0 -21 16 -25 58 -14 39 11 27 34 -18 34 -33 0 -40 -3
-40 -20z"/>
<path d="M2480 3919 c0 -5 5 -7 10 -4 6 3 10 8 10 11 0 2 -4 4 -10 4 -5 0 -10
-5 -10 -11z"/>
<path d="M2780 3855 c0 -8 6 -15 13 -15 8 0 14 7 14 15 0 8 -6 15 -14 15 -7 0
-13 -7 -13 -15z"/>
<path d="M5460 3985 c0 -24 5 -35 15 -35 10 0 15 11 15 35 0 24 -5 35 -15 35
-10 0 -15 -11 -15 -35z"/>
<path d="M5600 3980 c0 -29 4 -40 15 -40 11 0 15 11 15 40 0 29 -4 40 -15 40
-11 0 -15 -11 -15 -40z"/>
<path d="M5503 3904 c-8 -22 7 -34 43 -34 27 0 34 4 34 19 0 14 -9 20 -36 23
-23 3 -38 0 -41 -8z"/>
<path d="M5930 3816 c0 -9 5 -16 10 -16 6 0 10 4 10 9 0 6 -4 13 -10 16 -5 3
-10 -1 -10 -9z"/>
<path d="M5785 3770 c-3 -5 -1 -10 4 -10 6 0 11 5 11 10 0 6 -2 10 -4 10 -3 0
-8 -4 -11 -10z"/>
<path d="M3293 4005 c0 -8 4 -15 9 -15 4 0 8 7 8 15 0 8 -4 15 -8 15 -5 0 -9
-7 -9 -15z"/>
<path d="M1230 3721 c0 -21 5 -31 16 -31 11 0 14 8 12 27 -4 39 -28 42 -28 4z"/>
<path d="M1330 3720 c0 -20 5 -30 15 -30 10 0 15 10 15 30 0 20 -5 30 -15 30
-10 0 -15 -10 -15 -30z"/>
<path d="M1448 3625 c-3 -14 -1 -25 3 -25 5 0 9 10 9 23 0 18 2 19 10 7 8 -13
10 -12 10 3 0 26 -27 20 -32 -8z"/>
<path d="M1438 3403 c7 -3 16 -2 19 1 4 3 -2 6 -13 5 -11 0 -14 -3 -6 -6z"/>
<path d="M3568 3803 c7 -3 16 -2 19 1 4 3 -2 6 -13 5 -11 0 -14 -3 -6 -6z"/>
<path d="M691 3551 c-15 -9 -4 -64 12 -58 11 3 17 56 7 62 -3 2 -12 0 -19 -4z"/>
<path d="M490 3501 c0 -12 6 -21 16 -21 9 0 14 7 12 17 -5 25 -28 28 -28 4z"/>
<path d="M588 3423 c6 -2 18 -2 25 0 6 3 1 5 -13 5 -14 0 -19 -2 -12 -5z"/>
<path d="M610 3365 c0 -18 4 -23 15 -19 8 4 15 10 15 16 0 5 -4 6 -10 3 -5 -3
-10 -2 -10 4 0 5 6 12 13 14 7 3 5 6 -5 6 -13 1 -18 -7 -18 -24z"/>
<path d="M630 3265 c0 -8 2 -15 4 -15 2 0 6 7 10 15 3 8 1 15 -4 15 -6 0 -10
-7 -10 -15z"/>
<path d="M480 3241 c0 -5 9 -11 19 -14 14 -3 18 -1 14 9 -6 15 -33 19 -33 5z"/>
<path d="M4586 3525 c4 -8 8 -15 10 -15 2 0 4 7 4 15 0 8 -4 15 -10 15 -5 0
-7 -7 -4 -15z"/>
<path d="M4510 3455 c0 -8 2 -15 4 -15 2 0 6 7 10 15 3 8 1 15 -4 15 -6 0 -10
-7 -10 -15z"/>
<path d="M3060 3509 c0 -5 5 -7 10 -4 6 3 10 8 10 11 0 2 -4 4 -10 4 -5 0 -10
-5 -10 -11z"/>
<path d="M3274 3478 c-3 -4 4 -8 15 -8 12 0 21 4 21 8 0 5 -7 9 -15 9 -9 0
-18 -4 -21 -9z"/>
<path d="M6168 3393 c6 -2 18 -2 25 0 6 3 1 5 -13 5 -14 0 -19 -2 -12 -5z"/>
<path d="M5990 3273 c0 -13 5 -23 10 -23 13 0 13 11 0 30 -8 12 -10 11 -10 -7z"/>
<path d="M6000 3206 c0 -8 -6 -17 -12 -19 -8 -3 -6 -6 5 -6 11 -1 17 6 17 19
0 11 -2 20 -5 20 -3 0 -5 -6 -5 -14z"/>
<path d="M6140 3170 c0 -23 4 -30 20 -30 16 0 20 7 20 30 0 23 -4 30 -20 30
-16 0 -20 -7 -20 -30z"/>
<path d="M6409 3171 c11 -7 11 -9 0 -14 -10 -4 -9 -6 4 -6 9 -1 17 6 17 14 0
8 -8 15 -17 15 -14 0 -15 -2 -4 -9z"/>
<path d="M6042 3143 c4 -39 28 -42 28 -4 0 21 -5 31 -16 31 -11 0 -14 -8 -12
-27z"/>
<path d="M6231 3104 c0 -11 3 -14 6 -6 3 7 2 16 -1 19 -3 4 -6 -2 -5 -13z"/>
<path d="M6080 3080 c0 -16 7 -20 33 -20 38 0 48 6 40 26 -3 8 -19 14 -39 14
-27 0 -34 -4 -34 -20z"/>
<path d="M6223 3013 c9 -2 23 -2 30 0 6 3 -1 5 -18 5 -16 0 -22 -2 -12 -5z"/>
<path d="M2440 3328 c0 -4 9 -8 20 -8 11 0 20 4 20 8 0 4 -9 8 -20 8 -11 0
-20 -4 -20 -8z"/>
<path d="M2790 3230 c0 -11 5 -20 10 -20 6 0 10 9 10 20 0 11 -4 20 -10 20 -5
0 -10 -9 -10 -20z"/>
<path d="M2465 3220 c3 -5 10 -10 16 -10 5 0 9 5 9 10 0 6 -7 10 -16 10 -8 0
-12 -4 -9 -10z"/>
<path d="M2530 3095 c-11 -13 -7 -15 24 -15 37 0 48 13 20 24 -23 9 -30 8 -44
-9z"/>
<path d="M2650 2880 c0 -5 5 -10 10 -10 6 0 10 5 10 10 0 6 -4 10 -10 10 -5 0
-10 -4 -10 -10z"/>
<path d="M4896 3204 c-12 -32 -6 -54 14 -54 16 0 20 7 20 35 0 37 -22 49 -34
19z"/>
<path d="M5016 3204 c-12 -32 -6 -54 14 -54 16 0 20 7 20 35 0 37 -22 49 -34
19z"/>
<path d="M4910 3100 c0 -17 7 -20 50 -20 36 0 50 4 50 14 0 15 -30 26 -72 26
-21 0 -28 -5 -28 -20z"/>
<path d="M5456 2853 c5 -5 12 -12 16 -18 4 -6 8 -2 8 8 0 9 -7 17 -17 17 -9 0
-12 -3 -7 -7z"/>
<path d="M1662 3140 c0 -14 2 -19 5 -12 2 6 2 18 0 25 -3 6 -5 1 -5 -13z"/>
<path d="M1660 3050 c0 -13 6 -20 18 -19 9 0 12 3 5 5 -7 3 -9 12 -6 20 3 8 0
14 -6 14 -6 0 -11 -9 -11 -20z"/>
<path d="M1940 3010 c0 -20 5 -30 15 -30 10 0 15 10 15 30 0 20 -5 30 -15 30
-10 0 -15 -10 -15 -30z"/>
<path d="M1790 3000 c0 -22 5 -30 18 -30 15 0 18 6 14 30 -2 17 -10 30 -18 30
-9 0 -14 -11 -14 -30z"/>
<path d="M1850 2920 c0 -17 7 -20 45 -20 38 0 45 3 45 20 0 17 -7 20 -45 20
-38 0 -45 -3 -45 -20z"/>
<path d="M1750 2820 c0 -5 9 -10 20 -10 11 0 20 5 20 10 0 6 -9 10 -20 10 -11
0 -20 -4 -20 -10z"/>
<path d="M1016 3109 c6 -11 44 -12 44 -1 0 4 -11 8 -25 8 -14 1 -22 -2 -19 -7z"/>
<path d="M985 3100 c-3 -5 -1 -10 4 -10 6 0 11 5 11 10 0 6 -2 10 -4 10 -3 0
-8 -4 -11 -10z"/>
<path d="M866 3083 c5 -5 12 -12 16 -18 4 -6 8 -2 8 8 0 9 -7 17 -17 17 -9 0
-12 -3 -7 -7z"/>
<path d="M890 3041 c0 -5 9 -7 20 -4 11 3 20 7 20 9 0 2 -9 4 -20 4 -11 0 -20
-4 -20 -9z"/>
<path d="M1030 3006 c0 -13 -6 -27 -12 -29 -8 -3 -6 -6 5 -6 12 -1 17 7 17 29
0 17 -2 30 -5 30 -3 0 -5 -11 -5 -24z"/>
<path d="M880 3010 c-9 -6 -10 -10 -3 -10 6 0 15 5 18 10 8 12 4 12 -15 0z"/>
<path d="M1120 3000 c0 -5 5 -10 10 -10 6 0 10 5 10 10 0 6 -4 10 -10 10 -5 0
-10 -4 -10 -10z"/>
<path d="M3926 3115 c4 -8 8 -15 10 -15 2 0 4 7 4 15 0 8 -4 15 -10 15 -5 0
-7 -7 -4 -15z"/>
<path d="M3611 3001 c-9 -6 -10 -14 -5 -24 6 -10 14 -13 23 -8 9 6 10 14 5 24
-6 10 -14 13 -23 8z"/>
<path d="M3920 2940 c0 -33 3 -40 20 -40 17 0 20 7 20 40 0 33 -3 40 -20 40
-17 0 -20 -7 -20 -40z"/>
<path d="M3760 2920 c0 -33 3 -40 20 -40 17 0 20 7 20 40 0 33 -3 40 -20 40
-17 0 -20 -7 -20 -40z"/>
<path d="M3833 2843 c-7 -2 -13 -13 -13 -24 0 -16 7 -19 45 -19 41 0 45 2 45
25 0 22 -4 25 -32 24 -18 0 -39 -3 -45 -6z"/>
<path d="M3580 2800 c0 -5 7 -7 15 -4 8 4 15 8 15 10 0 2 -7 4 -15 4 -8 0 -15
-4 -15 -10z"/>
<path d="M3826 2773 c5 -5 12 -12 16 -18 4 -6 8 -2 8 8 0 9 -7 17 -17 17 -9 0
-12 -3 -7 -7z"/>
<path d="M4062 2720 c0 -19 2 -27 5 -17 2 9 2 25 0 35 -3 9 -5 1 -5 -18z"/>
<path d="M4005 2690 c-3 -5 1 -10 10 -10 9 0 13 5 10 10 -3 6 -8 10 -10 10 -2
0 -7 -4 -10 -10z"/>
<path d="M710 2890 c0 -11 4 -20 8 -20 4 0 8 9 9 20 1 11 -2 20 -8 20 -5 0 -9
-9 -9 -20z"/>
<path d="M1430 2720 c0 -11 5 -20 10 -20 6 0 10 9 10 20 0 11 -4 20 -10 20 -5
0 -10 -9 -10 -20z"/>
<path d="M1251 2404 c0 -11 3 -14 6 -6 3 7 2 16 -1 19 -3 4 -6 -2 -5 -13z"/>
<path d="M1690 1890 c0 -5 5 -10 11 -10 5 0 7 5 4 10 -3 6 -8 10 -11 10 -2 0
-4 -4 -4 -10z"/>
<path d="M1592 1818 c7 -19 35 -21 35 -3 0 8 -9 15 -19 15 -11 0 -18 -5 -16
-12z"/>
<path d="M1210 1473 c0 -10 4 -14 8 -8 4 6 11 13 16 18 5 4 2 7 -7 7 -10 0
-17 -8 -17 -17z"/>
<path d="M5710 2285 c0 -26 4 -35 16 -35 12 0 15 6 10 23 -3 12 -6 28 -6 35 0
6 -4 12 -10 12 -5 0 -10 -16 -10 -35z"/>
<path d="M5475 2170 c3 -5 8 -10 11 -10 2 0 4 5 4 10 0 6 -5 10 -11 10 -5 0
-7 -4 -4 -10z"/>
<path d="M5251 2054 c0 -11 3 -14 6 -6 3 7 2 16 -1 19 -3 4 -6 -2 -5 -13z"/>
<path d="M5620 2015 c0 -8 8 -15 18 -15 13 0 14 2 3 9 -11 7 -11 9 0 14 10 4
9 6 -3 6 -10 1 -18 -6 -18 -14z"/>
<path d="M5620 1950 c0 -29 4 -40 15 -40 11 0 15 11 15 40 0 29 -4 40 -15 40
-11 0 -15 -11 -15 -40z"/>
<path d="M5595 1860 c3 -5 8 -10 11 -10 2 0 4 5 4 10 0 6 -5 10 -11 10 -5 0
-7 -4 -4 -10z"/>
<path d="M5597 1833 c-11 -10 -8 -43 3 -43 6 0 10 11 10 25 0 26 -2 29 -13 18z"/>
<path d="M5092 1740 c0 -14 2 -19 5 -12 2 6 2 18 0 25 -3 6 -5 1 -5 -13z"/>
<path d="M4735 1600 c-3 -5 -1 -10 4 -10 6 0 11 5 11 10 0 6 -2 10 -4 10 -3 0
-8 -4 -11 -10z"/>
<path d="M4732 1540 c0 -22 4 -40 9 -40 5 0 9 18 9 40 0 22 -4 40 -9 40 -6 0
-9 -18 -9 -40z"/>
<path d="M3013 1565 c-3 -9 -3 -18 -1 -21 3 -3 8 4 11 16 6 23 -1 27 -10 5z"/>
<path d="M2610 1430 c0 -5 20 -10 45 -10 25 0 45 5 45 10 0 6 -20 10 -45 10
-25 0 -45 -4 -45 -10z"/>
<path d="M3901 1634 c0 -11 3 -14 6 -6 3 7 2 16 -1 19 -3 4 -6 -2 -5 -13z"/>
<path d="M4174 1535 c0 -14 4 -25 8 -25 4 0 7 11 6 25 -3 33 -16 33 -14 0z"/>
<path d="M2112 2015 c0 -16 2 -22 5 -12 2 9 2 23 0 30 -3 6 -5 -1 -5 -18z"/>
<path d="M6090 1959 c0 -11 5 -17 10 -14 6 3 10 13 10 21 0 8 -4 14 -10 14 -5
0 -10 -9 -10 -21z"/>
<path d="M6055 1890 c3 -5 10 -10 16 -10 5 0 9 5 9 10 0 6 -7 10 -16 10 -8 0
-12 -4 -9 -10z"/>
<path d="M592 1058 c-2 -37 2 -48 13 -48 8 0 15 7 15 15 0 8 -4 15 -9 15 -6 0
-12 15 -14 33 -3 24 -4 21 -5 -15z"/>
<path d="M590 839 c0 -5 5 -7 10 -4 6 3 10 8 10 11 0 2 -4 4 -10 4 -5 0 -10
-5 -10 -11z"/>
<path d="M590 740 c0 -43 4 -70 11 -70 5 0 7 5 4 10 -3 6 -1 10 4 10 7 0 11
24 11 60 0 47 -3 60 -15 60 -12 0 -15 -14 -15 -70z"/>
<path d="M590 580 c0 -64 3 -80 15 -80 12 0 15 16 15 80 0 64 -3 80 -15 80
-12 0 -15 -16 -15 -80z"/>
<path d="M920 242 c0 -5 7 -9 15 -9 8 0 15 4 15 9 0 4 -7 8 -15 8 -8 0 -15 -4
-15 -8z"/>
<path d="M1500 1055 c0 -8 4 -15 8 -15 5 0 9 7 9 15 0 8 -4 15 -9 15 -4 0 -8
-7 -8 -15z"/>
<path d="M1640 895 c0 -8 4 -15 10 -15 5 0 7 7 4 15 -4 8 -8 15 -10 15 -2 0
-4 -7 -4 -15z"/>
<path d="M1790 886 c0 -14 5 -28 10 -31 6 -4 10 7 10 24 0 17 -4 31 -10 31 -5
0 -10 -11 -10 -24z"/>
<path d="M1472 645 c0 -25 4 -45 9 -45 5 0 9 20 9 45 0 25 -4 45 -9 45 -5 0
-9 -20 -9 -45z"/>
<path d="M1700 435 c0 -8 7 -15 15 -15 8 0 15 7 15 15 0 8 -7 15 -15 15 -8 0
-15 -7 -15 -15z"/>
<path d="M1780 336 c0 -2 7 -7 16 -10 8 -3 12 -2 9 4 -6 10 -25 14 -25 6z"/>
<path d="M2168 243 c7 -3 16 -2 19 1 4 3 -2 6 -13 5 -11 0 -14 -3 -6 -6z"/>
<path d="M3411 1134 c0 -11 3 -14 6 -6 3 7 2 16 -1 19 -3 4 -6 -2 -5 -13z"/>
<path d="M2556 1121 c-4 -7 -5 -15 -2 -18 9 -9 19 4 14 18 -4 11 -6 11 -12 0z"/>
<path d="M3336 894 c4 -38 14 -42 14 -6 0 18 -4 32 -9 32 -4 0 -7 -12 -5 -26z"/>
<path d="M2852 745 c0 -16 2 -22 5 -12 2 9 2 23 0 30 -3 6 -5 -1 -5 -18z"/>
<path d="M2891 624 c0 -11 3 -14 6 -6 3 7 2 16 -1 19 -3 4 -6 -2 -5 -13z"/>
<path d="M2730 512 c0 -5 7 -9 15 -9 8 0 12 4 9 9 -3 4 -9 8 -15 8 -5 0 -9 -4
-9 -8z"/>
<path d="M3120 359 c0 -5 4 -8 9 -5 5 4 12 0 14 -6 3 -8 6 -6 6 5 1 9 -6 17
-14 17 -8 0 -15 -5 -15 -11z"/>
<path d="M3090 240 c0 -5 5 -10 10 -10 6 0 10 5 10 10 0 6 -4 10 -10 10 -5 0
-10 -4 -10 -10z"/>
<path d="M3768 995 c-12 -20 -4 -188 10 -192 9 -4 12 15 11 74 -1 81 -11 135
-21 118z"/>
<path d="M3797 993 c-12 -11 -8 -23 8 -23 8 0 15 7 15 15 0 16 -12 20 -23 8z"/>
<path d="M3768 603 c7 -3 16 -2 19 1 4 3 -2 6 -13 5 -11 0 -14 -3 -6 -6z"/>
<path d="M4168 243 c7 -3 16 -2 19 1 4 3 -2 6 -13 5 -11 0 -14 -3 -6 -6z"/>
<path d="M3820 206 c0 -7 7 -13 15 -13 8 0 15 4 15 8 0 4 -7 9 -15 13 -9 3
-15 0 -15 -8z"/>
<path d="M3765 200 c-3 -5 -1 -10 4 -10 6 0 11 5 11 10 0 6 -2 10 -4 10 -3 0
-8 -4 -11 -10z"/>
<path d="M3790 200 c0 -5 5 -10 10 -10 6 0 10 5 10 10 0 6 -4 10 -10 10 -5 0
-10 -4 -10 -10z"/>
<path d="M3886 199 c6 -11 44 -12 44 -1 0 4 -11 8 -25 8 -14 1 -22 -2 -19 -7z"/>
<path d="M4940 1130 c0 -5 7 -10 16 -10 8 0 12 5 9 10 -3 6 -10 10 -16 10 -5
0 -9 -4 -9 -10z"/>
<path d="M4980 1130 c0 -5 5 -10 10 -10 6 0 10 5 10 10 0 6 -4 10 -10 10 -5 0
-10 -4 -10 -10z"/>
<path d="M5050 1056 c0 -9 5 -16 10 -16 6 0 10 4 10 9 0 6 -4 13 -10 16 -5 3
-10 -1 -10 -9z"/>
<path d="M4609 963 c-1 -21 -3 -30 -6 -20 -2 9 -9 17 -14 17 -5 0 -9 -42 -9
-94 l0 -94 113 1 c85 2 111 5 109 15 -1 7 5 15 13 18 8 4 15 12 15 20 0 8 9
14 20 14 18 0 20 7 20 60 0 53 -2 60 -20 60 -14 0 -20 7 -20 21 0 21 1 21 -90
9 -3 0 2 -5 10 -10 11 -7 3 -10 -30 -10 -28 0 -40 3 -32 9 17 11 -7 21 -49 21
-27 0 -29 -3 -30 -37z m1 -114 c0 -16 -4 -28 -9 -25 -8 5 -3 56 5 56 2 0 4
-14 4 -31z"/>
<path d="M4840 820 c0 -6 7 -10 15 -10 8 0 15 2 15 4 0 2 -7 6 -15 10 -8 3
-15 1 -15 -4z"/>
<path d="M4710 559 c0 -5 5 -7 10 -4 6 3 10 8 10 11 0 2 -4 4 -10 4 -5 0 -10
-5 -10 -11z"/>
<path d="M5705 390 c3 -5 11 -10 16 -10 6 0 7 5 4 10 -3 6 -11 10 -16 10 -6 0
-7 -4 -4 -10z"/>
<path d="M5747 389 c7 -7 15 -10 18 -7 3 3 -2 9 -12 12 -14 6 -15 5 -6 -5z"/>
<path d="M5225 370 c-3 -5 -1 -10 4 -10 6 0 11 5 11 10 0 6 -2 10 -4 10 -3 0
-8 -4 -11 -10z"/>
<path d="M6233 203 c0 -7 6 -13 14 -13 7 0 13 6 13 13 0 8 -6 14 -13 14 -8 0
-14 -6 -14 -14z"/>
<path d="M6300 205 c0 -11 11 -15 40 -15 22 0 40 5 40 10 0 6 14 10 30 10 17
0 30 -4 30 -10 0 -16 37 -12 44 5 4 13 -9 15 -89 15 -78 0 -95 -3 -95 -15z"/>
<path d="M6510 205 c0 -13 22 -15 139 -15 114 0 140 3 145 15 5 13 -15 15
-139 15 -122 0 -145 -2 -145 -15z"/>
</g>
</svg>
